<?xml version="1.0" encoding="UTF-8"?>
<svg version="1.1" xmlns="http://www.w3.org/2000/svg" width="717" height="721">
<path d="M0 0 C236.61 0 473.22 0 717 0 C717 237.93 717 475.86 717 721 C480.39 721 243.78 721 0 721 C0 483.07 0 245.14 0 0 Z " fill="#FCFCFC" transform="translate(0,0)"/>
<path d="M0 0 C11.88 0 23.76 0 36 0 C36 5.61 36 11.22 36 17 C41.61 17 47.22 17 53 17 C53 11.39 53 5.78 53 0 C58.94 0 64.88 0 71 0 C71 5.94 71 11.88 71 18 C65.39 18 59.78 18 54 18 C54 23.94 54 29.88 54 36 C59.61 36 65.22 36 71 36 C71 65.04 71 94.08 71 124 C65.39 124 59.78 124 54 124 C54 118.39 54 112.78 54 107 C48.06 107 42.12 107 36 107 C36 112.94 36 118.88 36 125 C41.61 125 47.22 125 53 125 C53 136.88 53 148.76 53 161 C58.94 161 64.88 161 71 161 C71 172.55 71 184.1 71 196 C82.88 196 94.76 196 107 196 C107 201.94 107 207.88 107 214 C118.55 214 130.1 214 142 214 C142 219.94 142 225.88 142 232 C136.39 232 130.78 232 125 232 C125 243.88 125 255.76 125 268 C119.06 268 113.12 268 107 268 C107 273.94 107 279.88 107 286 C118.55 286 130.1 286 142 286 C142 291.61 142 297.22 142 303 C136.39 303 130.78 303 125 303 C125 308.94 125 314.88 125 321 C119.06 321 113.12 321 107 321 C107 315.06 107 309.12 107 303 C101.06 303 95.12 303 89 303 C89 320.82 89 338.64 89 357 C94.94 357 100.88 357 107 357 C107 362.61 107 368.22 107 374 C101.06 374 95.12 374 89 374 C89 385.88 89 397.76 89 410 C94.94 410 100.88 410 107 410 C107 421.88 107 433.76 107 446 C101.06 446 95.12 446 89 446 C89 451.94 89 457.88 89 464 C94.94 464 100.88 464 107 464 C107 475.55 107 487.1 107 499 C118.88 499 130.76 499 143 499 C143 516.82 143 534.64 143 553 C148.61 553 154.22 553 160 553 C160 558.94 160 564.88 160 571 C165.94 571 171.88 571 178 571 C178 576.94 178 582.88 178 589 C172.06 589 166.12 589 160 589 C160 594.61 160 600.22 160 606 C148.45 606 136.9 606 125 606 C125 611.94 125 617.88 125 624 C130.94 624 136.88 624 143 624 C143 635.88 143 647.76 143 660 C131.12 660 119.24 660 107 660 C107 654.06 107 648.12 107 642 C101.06 642 95.12 642 89 642 C89 636.06 89 630.12 89 624 C94.94 624 100.88 624 107 624 C107 618.06 107 612.12 107 606 C95.12 606 83.24 606 71 606 C71 611.94 71 617.88 71 624 C65.06 624 59.12 624 53 624 C53 618.06 53 612.12 53 606 C47.39 606 41.78 606 36 606 C36 600.39 36 594.78 36 589 C30.06 589 24.12 589 18 589 C18 583.06 18 577.12 18 571 C23.94 571 29.88 571 36 571 C36 565.06 36 559.12 36 553 C41.61 553 47.22 553 53 553 C53 541.12 53 529.24 53 517 C47.06 517 41.12 517 35 517 C35 528.88 35 540.76 35 553 C29.39 553 23.78 553 18 553 C18 541.12 18 529.24 18 517 C12.06 517 6.12 517 0 517 C0 511.39 0 505.78 0 500 C11.88 500 23.76 500 36 500 C36 493.73 36 487.46 36 481 C18.18 481 0.36 481 -18 481 C-18 475.39 -18 469.78 -18 464 C-12.06 464 -6.12 464 0 464 C0 458.06 0 452.12 0 446 C-5.94 446 -11.88 446 -18 446 C-18 440.06 -18 434.12 -18 428 C-29.88 428 -41.76 428 -54 428 C-54 433.94 -54 439.88 -54 446 C-48.06 446 -42.12 446 -36 446 C-36 451.94 -36 457.88 -36 464 C-41.94 464 -47.88 464 -54 464 C-54 475.55 -54 487.1 -54 499 C-65.55 499 -77.1 499 -89 499 C-89 504.94 -89 510.88 -89 517 C-83.06 517 -77.12 517 -71 517 C-71 522.94 -71 528.88 -71 535 C-82.88 535 -94.76 535 -107 535 C-107 540.94 -107 546.88 -107 553 C-112.94 553 -118.88 553 -125 553 C-125 541.12 -125 529.24 -125 517 C-119.06 517 -113.12 517 -107 517 C-107 499.51 -107 482.02 -107 464 C-118.88 464 -130.76 464 -143 464 C-143 469.94 -143 475.88 -143 482 C-148.61 482 -154.22 482 -160 482 C-160 493.55 -160 505.1 -160 517 C-154.39 517 -148.78 517 -143 517 C-143 523.27 -143 529.54 -143 536 C-148.61 536 -154.22 536 -160 536 C-160 541.61 -160 547.22 -160 553 C-171.88 553 -183.76 553 -196 553 C-196 535.18 -196 517.36 -196 499 C-201.94 499 -207.88 499 -214 499 C-214 493.39 -214 487.78 -214 482 C-208.06 482 -202.12 482 -196 482 C-196 470.12 -196 458.24 -196 446 C-190.06 446 -184.12 446 -178 446 C-178 440.06 -178 434.12 -178 428 C-166.45 428 -154.9 428 -143 428 C-143 422.06 -143 416.12 -143 410 C-154.88 410 -166.76 410 -179 410 C-179 404.39 -179 398.78 -179 393 C-184.61 393 -190.22 393 -196 393 C-196 381.12 -196 369.24 -196 357 C-190.06 357 -184.12 357 -178 357 C-178 368.55 -178 380.1 -178 392 C-172.39 392 -166.78 392 -161 392 C-161 386.06 -161 380.12 -161 374 C-155.06 374 -149.12 374 -143 374 C-143 368.39 -143 362.78 -143 357 C-137.06 357 -131.12 357 -125 357 C-125 362.61 -125 368.22 -125 374 C-83.75 374 -42.5 374 0 374 C0 368.39 0 362.78 0 357 C5.94 357 11.88 357 18 357 C18 339.18 18 321.36 18 303 C12.06 303 6.12 303 0 303 C0 297.39 0 291.78 0 286 C-5.94 286 -11.88 286 -18 286 C-18 274.12 -18 262.24 -18 250 C-12.06 250 -6.12 250 0 250 C0 238.12 0 226.24 0 214 C-29.37 214 -58.74 214 -89 214 C-89 219.94 -89 225.88 -89 232 C-83.06 232 -77.12 232 -71 232 C-71 243.88 -71 255.76 -71 268 C-76.94 268 -82.88 268 -89 268 C-89 273.61 -89 279.22 -89 285 C-71.51 285 -54.02 285 -36 285 C-36 290.94 -36 296.88 -36 303 C-41.94 303 -47.88 303 -54 303 C-54 308.94 -54 314.88 -54 321 C-59.61 321 -65.22 321 -71 321 C-71 315.06 -71 309.12 -71 303 C-76.94 303 -82.88 303 -89 303 C-89 297.39 -89 291.78 -89 286 C-94.94 286 -100.88 286 -107 286 C-107 291.61 -107 297.22 -107 303 C-112.94 303 -118.88 303 -125 303 C-125 297.06 -125 291.12 -125 285 C-119.06 285 -113.12 285 -107 285 C-107 279.39 -107 273.78 -107 268 C-112.94 268 -118.88 268 -125 268 C-125 262.06 -125 256.12 -125 250 C-119.06 250 -113.12 250 -107 250 C-107 244.06 -107 238.12 -107 232 C-118.88 232 -130.76 232 -143 232 C-143 226.06 -143 220.12 -143 214 C-137.06 214 -131.12 214 -125 214 C-125 208.06 -125 202.12 -125 196 C-136.88 196 -148.76 196 -161 196 C-161 207.88 -161 219.76 -161 232 C-166.61 232 -172.22 232 -178 232 C-178 220.12 -178 208.24 -178 196 C-189.88 196 -201.76 196 -214 196 C-214 190.39 -214 184.78 -214 179 C-202.12 179 -190.24 179 -178 179 C-178 161.18 -178 143.36 -178 125 C-172.39 125 -166.78 125 -161 125 C-161 119.06 -161 113.12 -161 107 C-166.61 107 -172.22 107 -178 107 C-178 101.39 -178 95.78 -178 90 C-172.06 90 -166.12 90 -160 90 C-160 84.06 -160 78.12 -160 72 C-154.39 72 -148.78 72 -143 72 C-143 66.06 -143 60.12 -143 54 C-131.12 54 -119.24 54 -107 54 C-107 59.61 -107 65.22 -107 71 C-112.94 71 -118.88 71 -125 71 C-125 82.88 -125 94.76 -125 107 C-119.06 107 -113.12 107 -107 107 C-107 118.88 -107 130.76 -107 143 C-118.88 143 -130.76 143 -143 143 C-143 148.61 -143 154.22 -143 160 C-148.94 160 -154.88 160 -161 160 C-161 166.27 -161 172.54 -161 179 C-149.12 179 -137.24 179 -125 179 C-125 172.73 -125 166.46 -125 160 C-119.06 160 -113.12 160 -107 160 C-107 166.27 -107 172.54 -107 179 C-101.06 179 -95.12 179 -89 179 C-89 184.61 -89 190.22 -89 196 C-83.06 196 -77.12 196 -71 196 C-71 190.06 -71 184.12 -71 178 C-76.94 178 -82.88 178 -89 178 C-89 172.39 -89 166.78 -89 161 C-83.06 161 -77.12 161 -71 161 C-71 155.06 -71 149.12 -71 143 C-76.94 143 -82.88 143 -89 143 C-89 125.18 -89 107.36 -89 89 C-83.39 89 -77.78 89 -72 89 C-72 83.06 -72 77.12 -72 71 C-66.06 71 -60.12 71 -54 71 C-54 76.94 -54 82.88 -54 89 C-59.61 89 -65.22 89 -71 89 C-71 100.88 -71 112.76 -71 125 C-65.39 125 -59.78 125 -54 125 C-54 119.06 -54 113.12 -54 107 C-48.06 107 -42.12 107 -36 107 C-36 118.88 -36 130.76 -36 143 C-41.61 143 -47.22 143 -53 143 C-53 154.55 -53 166.1 -53 178 C-47.39 178 -41.78 178 -36 178 C-36 172.06 -36 166.12 -36 160 C-30.06 160 -24.12 160 -18 160 C-18 154.39 -18 148.78 -18 143 C-12.06 143 -6.12 143 0 143 C0 137.06 0 131.12 0 125 C-5.94 125 -11.88 125 -18 125 C-18 113.12 -18 101.24 -18 89 C-23.94 89 -29.88 89 -36 89 C-36 77.45 -36 65.9 -36 54 C-18.18 54 -0.36 54 18 54 C18 48.06 18 42.12 18 36 C23.61 36 29.22 36 35 36 C35 30.06 35 24.12 35 18 C23.45 18 11.9 18 0 18 C0 12.06 0 6.12 0 0 Z " fill="#030303" transform="translate(471,18)"/>
<path d="M0 0 C11.88 0 23.76 0 36 0 C36 11.88 36 23.76 36 36 C41.61 36 47.22 36 53 36 C53 24.12 53 12.24 53 0 C64.88 0 76.76 0 89 0 C89 5.94 89 11.88 89 18 C83.06 18 77.12 18 71 18 C71 23.94 71 29.88 71 36 C82.88 36 94.76 36 107 36 C107 41.94 107 47.88 107 54 C101.06 54 95.12 54 89 54 C89 59.94 89 65.88 89 72 C94.94 72 100.88 72 107 72 C107 77.61 107 83.22 107 89 C101.06 89 95.12 89 89 89 C89 94.94 89 100.88 89 107 C94.94 107 100.88 107 107 107 C107 101.39 107 95.78 107 90 C112.94 90 118.88 90 125 90 C125 95.61 125 101.22 125 107 C130.94 107 136.88 107 143 107 C143 112.94 143 118.88 143 125 C148.61 125 154.22 125 160 125 C160 119.06 160 113.12 160 107 C165.94 107 171.88 107 178 107 C178 101.06 178 95.12 178 89 C160.51 89 143.02 89 125 89 C125 83.39 125 77.78 125 72 C130.94 72 136.88 72 143 72 C143 60.12 143 48.24 143 36 C137.06 36 131.12 36 125 36 C125 30.06 125 24.12 125 18 C154.37 18 183.74 18 214 18 C214 29.88 214 41.76 214 54 C208.06 54 202.12 54 196 54 C196 65.88 196 77.76 196 90 C201.94 90 207.88 90 214 90 C214 95.61 214 101.22 214 107 C219.94 107 225.88 107 232 107 C232 124.82 232 142.64 232 161 C226.06 161 220.12 161 214 161 C214 166.61 214 172.22 214 178 C172.75 178 131.5 178 89 178 C89 172.39 89 166.78 89 161 C83.06 161 77.12 161 71 161 C71 166.61 71 172.22 71 178 C65.06 178 59.12 178 53 178 C53 183.94 53 189.88 53 196 C47.39 196 41.78 196 36 196 C36 184.45 36 172.9 36 161 C30.06 161 24.12 161 18 161 C18 172.88 18 184.76 18 197 C23.61 197 29.22 197 35 197 C35 202.61 35 208.22 35 214 C46.88 214 58.76 214 71 214 C71 219.94 71 225.88 71 232 C59.45 232 47.9 232 36 232 C36 237.94 36 243.88 36 250 C18.18 250 0.36 250 -18 250 C-18 255.94 -18 261.88 -18 268 C-23.94 268 -29.88 268 -36 268 C-36 250.18 -36 232.36 -36 214 C-41.94 214 -47.88 214 -54 214 C-54 202.12 -54 190.24 -54 178 C-42.12 178 -30.24 178 -18 178 C-18 166.45 -18 154.9 -18 143 C-12.06 143 -6.12 143 0 143 C0 137.06 0 131.12 0 125 C-5.94 125 -11.88 125 -18 125 C-18 119.06 -18 113.12 -18 107 C-12.06 107 -6.12 107 0 107 C0 101.39 0 95.78 0 90 C-5.94 90 -11.88 90 -18 90 C-18 84.06 -18 78.12 -18 72 C-23.94 72 -29.88 72 -36 72 C-36 66.06 -36 60.12 -36 54 C-30.06 54 -24.12 54 -18 54 C-18 59.61 -18 65.22 -18 71 C-12.06 71 -6.12 71 0 71 C0 65.39 0 59.78 0 54 C5.94 54 11.88 54 18 54 C18 59.61 18 65.22 18 71 C23.94 71 29.88 71 36 71 C36 76.94 36 82.88 36 89 C41.61 89 47.22 89 53 89 C53 77.45 53 65.9 53 54 C47.06 54 41.12 54 35 54 C35 36.51 35 19.02 35 1 C23.45 1 11.9 1 0 1 C0 0.67 0 0.34 0 0 Z " fill="#FCFCFC" transform="translate(257,214)"/>
<path d="M0 0 C29.37 0 58.74 0 89 0 C89 5.61 89 11.22 89 17 C71.18 17 53.36 17 35 17 C35 28.88 35 40.76 35 53 C29.39 53 23.78 53 18 53 C18 58.94 18 64.88 18 71 C23.61 71 29.22 71 35 71 C35 76.94 35 82.88 35 89 C29.06 89 23.12 89 17 89 C17 94.94 17 100.88 17 107 C28.88 107 40.76 107 53 107 C53 112.61 53 118.22 53 124 C58.94 124 64.88 124 71 124 C71 118.39 71 112.78 71 107 C76.94 107 82.88 107 89 107 C89 101.06 89 95.12 89 89 C94.94 89 100.88 89 107 89 C107 94.94 107 100.88 107 107 C112.94 107 118.88 107 125 107 C125 101.06 125 95.12 125 89 C159.98 89 194.96 89 231 89 C231 94.94 231 100.88 231 107 C236.94 107 242.88 107 249 107 C249 118.55 249 130.1 249 142 C243.39 142 237.78 142 232 142 C232 136.06 232 130.12 232 124 C226.06 124 220.12 124 214 124 C214 118.39 214 112.78 214 107 C208.06 107 202.12 107 196 107 C196 112.61 196 118.22 196 124 C190.06 124 184.12 124 178 124 C178 118.39 178 112.78 178 107 C172.06 107 166.12 107 160 107 C160 112.94 160 118.88 160 125 C165.94 125 171.88 125 178 125 C178 130.94 178 136.88 178 143 C183.94 143 189.88 143 196 143 C196 148.61 196 154.22 196 160 C190.06 160 184.12 160 178 160 C178 165.94 178 171.88 178 178 C183.94 178 189.88 178 196 178 C196 183.94 196 189.88 196 196 C190.06 196 184.12 196 178 196 C178 207.55 178 219.1 178 231 C166.12 231 154.24 231 142 231 C142 242.88 142 254.76 142 267 C147.94 267 153.88 267 160 267 C160 278.88 160 290.76 160 303 C154.06 303 148.12 303 142 303 C142 308.94 142 314.88 142 321 C130.45 321 118.9 321 107 321 C107 315.06 107 309.12 107 303 C95.12 303 83.24 303 71 303 C71 297.06 71 291.12 71 285 C76.94 285 82.88 285 89 285 C89 279.06 89 273.12 89 267 C94.94 267 100.88 267 107 267 C107 255.45 107 243.9 107 232 C112.61 231.67 118.22 231.34 124 231 C124.33 219.45 124.66 207.9 125 196 C130.61 196 136.22 196 142 196 C142 190.06 142 184.12 142 178 C136.39 178 130.78 178 125 178 C125 172.06 125 166.12 125 160 C119.06 160 113.12 160 107 160 C107 165.94 107 171.88 107 178 C101.06 178 95.12 178 89 178 C89 172.06 89 166.12 89 160 C77.12 160 65.24 160 53 160 C53 154.39 53 148.78 53 143 C41.45 143 29.9 143 18 143 C18 148.61 18 154.22 18 160 C23.94 160 29.88 160 36 160 C36 165.94 36 171.88 36 178 C41.61 178 47.22 178 53 178 C53 183.94 53 189.88 53 196 C47.06 196 41.12 196 35 196 C35 201.94 35 207.88 35 214 C29.39 214 23.78 214 18 214 C18 208.06 18 202.12 18 196 C12.06 196 6.12 196 0 196 C0 207.88 0 219.76 0 232 C-5.94 232 -11.88 232 -18 232 C-18 226.06 -18 220.12 -18 214 C-23.94 214 -29.88 214 -36 214 C-36 208.06 -36 202.12 -36 196 C-30.06 196 -24.12 196 -18 196 C-18 190.06 -18 184.12 -18 178 C-12.06 178 -6.12 178 0 178 C0 166.12 0 154.24 0 142 C-5.94 142 -11.88 142 -18 142 C-18 136.39 -18 130.78 -18 125 C-23.94 125 -29.88 125 -36 125 C-36 119.06 -36 113.12 -36 107 C-24.12 107 -12.24 107 0 107 C0 95.12 0 83.24 0 71 C-11.88 71 -23.76 71 -36 71 C-36 65.06 -36 59.12 -36 53 C-30.06 53 -24.12 53 -18 53 C-18 47.39 -18 41.78 -18 36 C-6.12 36 5.76 36 18 36 C18 29.73 18 23.46 18 17 C12.06 17 6.12 17 0 17 C0 11.39 0 5.78 0 0 Z " fill="#020202" transform="translate(61,161)"/>
<path d="M0 0 C11.88 0 23.76 0 36 0 C36 5.61 36 11.22 36 17 C30.06 17 24.12 17 18 17 C18 28.88 18 40.76 18 53 C23.94 53 29.88 53 36 53 C36 64.88 36 76.76 36 89 C24.12 89 12.24 89 0 89 C0 94.61 0 100.22 0 106 C-5.94 106 -11.88 106 -18 106 C-18 112.27 -18 118.54 -18 125 C-6.12 125 5.76 125 18 125 C18 118.73 18 112.46 18 106 C23.94 106 29.88 106 36 106 C36 112.27 36 118.54 36 125 C41.94 125 47.88 125 54 125 C54 130.61 54 136.22 54 142 C59.94 142 65.88 142 72 142 C72 136.06 72 130.12 72 124 C66.06 124 60.12 124 54 124 C54 118.39 54 112.78 54 107 C59.94 107 65.88 107 72 107 C72 101.06 72 95.12 72 89 C66.06 89 60.12 89 54 89 C54 71.18 54 53.36 54 35 C59.61 35 65.22 35 71 35 C71 29.06 71 23.12 71 17 C76.94 17 82.88 17 89 17 C89 22.94 89 28.88 89 35 C83.39 35 77.78 35 72 35 C72 46.88 72 58.76 72 71 C77.61 71 83.22 71 89 71 C89 65.06 89 59.12 89 53 C94.94 53 100.88 53 107 53 C107 64.88 107 76.76 107 89 C101.06 89 95.12 89 89 89 C89 100.88 89 112.76 89 125 C94.94 125 100.88 125 107 125 C107 130.61 107 136.22 107 142 C118.88 142 130.76 142 143 142 C143 147.94 143 153.88 143 160 C113.63 160 84.26 160 54 160 C54 165.94 54 171.88 54 178 C59.94 178 65.88 178 72 178 C72 189.88 72 201.76 72 214 C66.06 214 60.12 214 54 214 C54 219.61 54 225.22 54 231 C71.49 231 88.98 231 107 231 C107 236.94 107 242.88 107 249 C101.06 249 95.12 249 89 249 C89 254.94 89 260.88 89 267 C83.39 267 77.78 267 72 267 C72 261.06 72 255.12 72 249 C66.06 249 60.12 249 54 249 C54 243.39 54 237.78 54 232 C48.06 232 42.12 232 36 232 C36 237.61 36 243.22 36 249 C30.06 249 24.12 249 18 249 C18 243.06 18 237.12 18 231 C23.94 231 29.88 231 36 231 C36 225.39 36 219.78 36 214 C30.06 214 24.12 214 18 214 C18 208.06 18 202.12 18 196 C23.94 196 29.88 196 36 196 C36 190.06 36 184.12 36 178 C24.12 178 12.24 178 0 178 C0 172.06 0 166.12 0 160 C5.94 160 11.88 160 18 160 C18 154.06 18 148.12 18 142 C6.12 142 -5.76 142 -18 142 C-18 153.88 -18 165.76 -18 178 C-23.61 178 -29.22 178 -35 178 C-35 166.12 -35 154.24 -35 142 C-46.88 142 -58.76 142 -71 142 C-71 136.39 -71 130.78 -71 125 C-59.12 125 -47.24 125 -35 125 C-35 107.18 -35 89.36 -35 71 C-29.39 71 -23.78 71 -18 71 C-18 65.06 -18 59.12 -18 53 C-23.61 53 -29.22 53 -35 53 C-35 47.39 -35 41.78 -35 36 C-29.06 36 -23.12 36 -17 36 C-17 30.06 -17 24.12 -17 18 C-11.39 18 -5.78 18 0 18 C0 12.06 0 6.12 0 0 Z " fill="#020202" transform="translate(328,72)"/>
<path d="M0 0 C41.25 0 82.5 0 125 0 C125 41.25 125 82.5 125 125 C83.75 125 42.5 125 0 125 C0 83.75 0 42.5 0 0 Z " fill="#FBFBFB" transform="translate(25,553)"/>
<path d="M0 0 C41.25 0 82.5 0 125 0 C125 41.25 125 82.5 125 125 C83.75 125 42.5 125 0 125 C0 83.75 0 42.5 0 0 Z " fill="#FBFBFB" transform="translate(560,18)"/>
<path d="M0 0 C41.25 0 82.5 0 125 0 C125 41.25 125 82.5 125 125 C83.75 125 42.5 125 0 125 C0 83.75 0 42.5 0 0 Z " fill="#FBFBFB" transform="translate(25,18)"/>
<path d="M0 0 C5.94 0 11.88 0 18 0 C18 5.94 18 11.88 18 18 C23.94 18 29.88 18 36 18 C36 12.06 36 6.12 36 0 C70.98 0 105.96 0 142 0 C142 5.94 142 11.88 142 18 C147.94 18 153.88 18 160 18 C160 29.55 160 41.1 160 53 C154.39 53 148.78 53 143 53 C143 47.06 143 41.12 143 35 C137.06 35 131.12 35 125 35 C125 29.39 125 23.78 125 18 C119.06 18 113.12 18 107 18 C107 23.61 107 29.22 107 35 C101.06 35 95.12 35 89 35 C89 29.39 89 23.78 89 18 C83.06 18 77.12 18 71 18 C71 23.94 71 29.88 71 36 C76.94 36 82.88 36 89 36 C89 41.94 89 47.88 89 54 C94.94 54 100.88 54 107 54 C107 59.61 107 65.22 107 71 C101.06 71 95.12 71 89 71 C89 76.94 89 82.88 89 89 C94.94 89 100.88 89 107 89 C107 94.94 107 100.88 107 107 C101.06 107 95.12 107 89 107 C89 118.55 89 130.1 89 142 C77.12 142 65.24 142 53 142 C53 153.88 53 165.76 53 178 C58.94 178 64.88 178 71 178 C71 189.88 71 201.76 71 214 C65.06 214 59.12 214 53 214 C53 219.94 53 225.88 53 232 C41.45 232 29.9 232 18 232 C18 226.06 18 220.12 18 214 C6.12 214 -5.76 214 -18 214 C-18 208.06 -18 202.12 -18 196 C-12.06 196 -6.12 196 0 196 C0 190.06 0 184.12 0 178 C5.94 178 11.88 178 18 178 C18 166.45 18 154.9 18 143 C23.61 142.67 29.22 142.34 35 142 C35.33 130.45 35.66 118.9 36 107 C41.94 107 47.88 107 54 107 C54 101.06 54 95.12 54 89 C59.61 89 65.22 89 71 89 C71 77.12 71 65.24 71 53 C65.39 53 59.78 53 54 53 C54 47.06 54 41.12 54 35 C30.24 35 6.48 35 -18 35 C-18 29.39 -18 23.78 -18 18 C-12.06 18 -6.12 18 0 18 C0 12.06 0 6.12 0 0 Z " fill="#020202" transform="translate(150,250)"/>
<path d="M0 0 C5.94 0 11.88 0 18 0 C18 17.49 18 34.98 18 53 C12.06 53 6.12 53 0 53 C0 58.94 0 64.88 0 71 C5.94 71 11.88 71 18 71 C18 88.82 18 106.64 18 125 C12.06 125 6.12 125 0 125 C0 130.61 0 136.22 0 142 C5.94 142 11.88 142 18 142 C18 147.94 18 153.88 18 160 C0.18 160 -17.64 160 -36 160 C-36 165.94 -36 171.88 -36 178 C-24.12 178 -12.24 178 0 178 C0 189.88 0 201.76 0 214 C5.94 214 11.88 214 18 214 C18 219.94 18 225.88 18 232 C6.12 232 -5.76 232 -18 232 C-18 220.12 -18 208.24 -18 196 C-23.94 196 -29.88 196 -36 196 C-36 207.88 -36 219.76 -36 232 C-47.55 232 -59.1 232 -71 232 C-71 226.06 -71 220.12 -71 214 C-65.06 214 -59.12 214 -53 214 C-53 208.06 -53 202.12 -53 196 C-58.94 196 -64.88 196 -71 196 C-71 190.06 -71 184.12 -71 178 C-65.06 178 -59.12 178 -53 178 C-53 160.51 -53 143.02 -53 125 C-47.06 125 -41.12 125 -35 125 C-35 119.06 -35 113.12 -35 107 C-29.06 107 -23.12 107 -17 107 C-17 101.06 -17 95.12 -17 89 C-23.27 89 -29.54 89 -36 89 C-36 94.94 -36 100.88 -36 107 C-41.61 107 -47.22 107 -53 107 C-53 101.06 -53 95.12 -53 89 C-58.94 89 -64.88 89 -71 89 C-71 83.06 -71 77.12 -71 71 C-65.06 71 -59.12 71 -53 71 C-53 65.06 -53 59.12 -53 53 C-47.39 53 -41.78 53 -36 53 C-36 58.94 -36 64.88 -36 71 C-30.06 71 -24.12 71 -18 71 C-18 65.06 -18 59.12 -18 53 C-23.61 53 -29.22 53 -35 53 C-35 47.39 -35 41.78 -35 36 C-23.45 36 -11.9 36 0 36 C0 24.12 0 12.24 0 0 Z " fill="#020202" transform="translate(667,268)"/>
<path d="M0 0 C41.25 0 82.5 0 125 0 C125 41.25 125 82.5 125 125 C83.75 125 42.5 125 0 125 C0 83.75 0 42.5 0 0 Z M18 18 C18 47.37 18 76.74 18 107 C47.37 107 76.74 107 107 107 C107 77.63 107 48.26 107 18 C77.63 18 48.26 18 18 18 Z " fill="#030303" transform="translate(25,553)"/>
<path d="M0 0 C41.25 0 82.5 0 125 0 C125 41.25 125 82.5 125 125 C83.75 125 42.5 125 0 125 C0 83.75 0 42.5 0 0 Z M18 18 C18 47.37 18 76.74 18 107 C47.37 107 76.74 107 107 107 C107 77.63 107 48.26 107 18 C77.63 18 48.26 18 18 18 Z " fill="#030303" transform="translate(560,18)"/>
<path d="M0 0 C41.25 0 82.5 0 125 0 C125 41.25 125 82.5 125 125 C83.75 125 42.5 125 0 125 C0 83.75 0 42.5 0 0 Z M18 18 C18 47.37 18 76.74 18 107 C47.37 107 76.74 107 107 107 C107 77.63 107 48.26 107 18 C77.63 18 48.26 18 18 18 Z " fill="#030303" transform="translate(25,18)"/>
<path d="M0 0 C5.94 0 11.88 0 18 0 C18 17.49 18 34.98 18 53 C23.94 53 29.88 53 36 53 C36 58.94 36 64.88 36 71 C41.94 71 47.88 71 54 71 C54 82.88 54 94.76 54 107 C48.06 107 42.12 107 36 107 C36 112.94 36 118.88 36 125 C24.45 125 12.9 125 1 125 C1 130.61 1 136.22 1 142 C0 143 0 143 -1.76586914 143.11352539 C-2.51473389 143.10828857 -3.26359863 143.10305176 -4.03515625 143.09765625 C-5.12775757 143.09390991 -5.12775757 143.09390991 -6.24243164 143.09008789 C-7.1730542 143.08098389 -8.10367676 143.07187988 -9.0625 143.0625 C-13.4865625 143.0315625 -13.4865625 143.0315625 -18 143 C-18 137.06 -18 131.12 -18 125 C-23.61 125 -29.22 125 -35 125 C-35 89.69 -35 54.38 -35 18 C-29.06 18 -23.12 18 -17 18 C-17 29.55 -17 41.1 -17 53 C-11.39 53 -5.78 53 0 53 C0 35.51 0 18.02 0 0 Z " fill="#050505" transform="translate(203,36)"/>
<path d="M0 0 C11.88 0 23.76 0 36 0 C36 5.61 36 11.22 36 17 C41.61 17 47.22 17 53 17 C53 11.39 53 5.78 53 0 C58.94 0 64.88 0 71 0 C71 5.94 71 11.88 71 18 C65.39 18 59.78 18 54 18 C54 23.94 54 29.88 54 36 C59.61 36 65.22 36 71 36 C71 65.04 71 94.08 71 124 C65.39 124 59.78 124 54 124 C54 118.39 54 112.78 54 107 C48.06 107 42.12 107 36 107 C36 101.39 36 95.78 36 90 C41.94 90 47.88 90 54 90 C54 83.73 54 77.46 54 71 C42.12 71 30.24 71 18 71 C18 82.88 18 94.76 18 107 C12.06 107 6.12 107 0 107 C0 112.94 0 118.88 0 125 C-5.94 125 -11.88 125 -18 125 C-18 113.12 -18 101.24 -18 89 C-23.94 89 -29.88 89 -36 89 C-36 77.45 -36 65.9 -36 54 C-18.18 54 -0.36 54 18 54 C18 48.06 18 42.12 18 36 C23.61 36 29.22 36 35 36 C35 30.06 35 24.12 35 18 C23.45 18 11.9 18 0 18 C0 12.06 0 6.12 0 0 Z " fill="#020202" transform="translate(471,18)"/>
<path d="M0 0 C5.94 0 11.88 0 18 0 C18 11.88 18 23.76 18 36 C23.61 36 29.22 36 35 36 C35 24.12 35 12.24 35 0 C52.82 0 70.64 0 89 0 C89 5.94 89 11.88 89 18 C94.94 18 100.88 18 107 18 C107 23.94 107 29.88 107 36 C112.94 36 118.88 36 125 36 C125 30.06 125 24.12 125 18 C130.61 18 136.22 18 142 18 C142 23.94 142 29.88 142 36 C147.94 36 153.88 36 160 36 C160 41.94 160 47.88 160 54 C148.45 54 136.9 54 125 54 C125 71.49 125 88.98 125 107 C119.06 107 113.12 107 107 107 C107 95.12 107 83.24 107 71 C101.06 71 95.12 71 89 71 C89 65.06 89 59.12 89 53 C94.61 53 100.22 53 106 53 C106 47.39 106 41.78 106 36 C94.45 36 82.9 36 71 36 C71 41.94 71 47.88 71 54 C53.18 54 35.36 54 17 54 C17 59.61 17 65.22 17 71 C11.39 71 5.78 71 0 71 C0 47.57 0 24.14 0 0 Z " fill="#040404" transform="translate(168,571)"/>
<path d="M0 0 C11.55 0 23.1 0 35 0 C35 5.61 35 11.22 35 17 C46.88 17 58.76 17 71 17 C71 22.94 71 28.88 71 35 C76.94 35 82.88 35 89 35 C89 29.06 89 23.12 89 17 C94.94 17 100.88 17 107 17 C107 22.94 107 28.88 107 35 C112.61 35 118.22 35 124 35 C124 40.94 124 46.88 124 53 C118.39 53 112.78 53 107 53 C107.01160156 55.51496094 107.02320313 58.02992188 107.03515625 60.62109375 C107.04294673 63.0469551 107.04902354 65.47281507 107.05493164 67.89868164 C107.0599719 69.58944316 107.06680405 71.28020029 107.07543945 72.97094727 C107.08751857 75.39600707 107.09323123 77.82100944 107.09765625 80.24609375 C107.10281754 81.00651474 107.10797882 81.76693573 107.11329651 82.55039978 C107.11349238 84.3673257 107.06197277 86.18413127 107 88 C106.67 88.33 106.34 88.66 106 89 C100.39 89 94.78 89 89 89 C89 100.55 89 112.1 89 124 C83.06 124 77.12 124 71 124 C71 118.06 71 112.12 71 106 C59.12 106 47.24 106 35 106 C35 100.39 35 94.78 35 89 C46.88 89 58.76 89 71 89 C71 83.06 71 77.12 71 71 C53.51 71 36.02 71 18 71 C18 76.61 18 82.22 18 88 C17.67 88 17.34 88 17 88 C17 76.45 17 64.9 17 53 C22.94 53 28.88 53 35 53 C35 47.06 35 41.12 35 35 C29.39 35 23.78 35 18 35 C18 29.06 18 23.12 18 17 C12.06 17 6.12 17 0 17 C0 11.39 0 5.78 0 0 Z " fill="#FAFAFA" transform="translate(79,304)"/>
<path d="M0 0 C29.37 0 58.74 0 89 0 C89 11.88 89 23.76 89 36 C83.06 36 77.12 36 71 36 C71 47.88 71 59.76 71 72 C76.94 72 82.88 72 89 72 C89 77.61 89 83.22 89 89 C94.94 89 100.88 89 107 89 C107 106.82 107 124.64 107 143 C101.06 143 95.12 143 89 143 C89 131.12 89 119.24 89 107 C83.06 107 77.12 107 71 107 C71 101.06 71 95.12 71 89 C65.06 89 59.12 89 53 89 C53 83.06 53 77.12 53 71 C35.51 71 18.02 71 0 71 C0 65.39 0 59.78 0 54 C5.94 54 11.88 54 18 54 C18 42.12 18 30.24 18 18 C12.06 18 6.12 18 0 18 C0 12.06 0 6.12 0 0 Z " fill="#FCFCFC" transform="translate(382,232)"/>
<path d="M0 0 C17.49 0 34.98 0 53 0 C53 5.94 53 11.88 53 18 C41.12 18 29.24 18 17 18 C17 23.61 17 29.22 17 35 C28.88 35 40.76 35 53 35 C53 40.94 53 46.88 53 53 C41.12 53 29.24 53 17 53 C17 64.88 17 76.76 17 89 C11.39 89 5.78 89 0 89 C0 100.55 0 112.1 0 124 C5.61 124 11.22 124 17 124 C17 130.27 17 136.54 17 143 C11.39 143 5.78 143 0 143 C0 148.61 0 154.22 0 160 C-5.94 160 -11.88 160 -18 160 C-18 154.06 -18 148.12 -18 142 C-12.39 142 -6.78 142 -1 142 C-1 136.39 -1 130.78 -1 125 C-6.54973121 125.03957481 -6.54973121 125.03957481 -12.09936523 125.09008789 C-14.06645974 125.09723091 -16.03353621 125.05031893 -18 125 C-19 124 -19 124 -19.09765625 120.18359375 C-19.09191138 118.60152953 -19.07889593 117.01948969 -19.0625 115.4375 C-19.041875 112.653125 -19.02125 109.86875 -19 107 C-24.94 107 -30.88 107 -37 107 C-37 101.06 -37 95.12 -37 89 C-25.12 89 -13.24 89 -1 89 C-1 77.12 -1 65.24 -1 53 C-6.61 53 -12.22 53 -18 53 C-18 58.94 -18 64.88 -18 71 C-29.88 71 -41.76 71 -54 71 C-54 59.45 -54 47.9 -54 36 C-42.12 36 -30.24 36 -18 36 C-18 30.06 -18 24.12 -18 18 C-9.585 17.505 -9.585 17.505 -1 17 C-0.67 11.39 -0.34 5.78 0 0 Z " fill="#070707" transform="translate(97,375)"/>
<path d="M0 0 C11.55 0 23.1 0 35 0 C35 5.94 35 11.88 35 18 C46.88 18 58.76 18 71 18 C71 23.94 71 29.88 71 36 C59.12 36 47.24 36 35 36 C35 41.94 35 47.88 35 54 C29.39 54 23.78 54 18 54 C18 65.55 18 77.1 18 89 C23.61 89 29.22 89 35 89 C35 95.27 35 101.54 35 108 C29.39 108 23.78 108 18 108 C18 113.61 18 119.22 18 125 C6.12 125 -5.76 125 -18 125 C-18 107.18 -18 89.36 -18 71 C-23.94 71 -29.88 71 -36 71 C-36 65.39 -36 59.78 -36 54 C-30.06 54 -24.12 54 -18 54 C-18 42.12 -18 30.24 -18 18 C-12.06 18 -6.12 18 0 18 C0 12.06 0 6.12 0 0 Z " fill="#000000" transform="translate(293,446)"/>
<path d="M0 0 C11.88 0 23.76 0 36 0 C36 5.94 36 11.88 36 18 C47.55 18 59.1 18 71 18 C71 23.94 71 29.88 71 36 C65.39 36 59.78 36 54 36 C54 47.88 54 59.76 54 72 C48.06 72 42.12 72 36 72 C36 77.94 36 83.88 36 90 C47.55 90 59.1 90 71 90 C71 95.61 71 101.22 71 107 C65.39 107 59.78 107 54 107 C54 112.94 54 118.88 54 125 C48.06 125 42.12 125 36 125 C36 119.06 36 113.12 36 107 C30.06 107 24.12 107 18 107 C18 101.06 18 95.12 18 89 C12.39 89 6.78 89 1 89 C1 83.39 1 77.78 1 72 C6.61 72 12.22 72 18 72 C18 66.06 18 60.12 18 54 C6.45 54 -5.1 54 -17 54 C-17 48.06 -17 42.12 -17 36 C-5.45 36 6.1 36 18 36 C18 30.06 18 24.12 18 18 C12.06 18 6.12 18 0 18 C0 12.06 0 6.12 0 0 Z " fill="#020202" transform="translate(542,214)"/>
<path d="M0 0 C23.76 0 47.52 0 72 0 C72 5.94 72 11.88 72 18 C71.67 18 71.34 18 71 18 C71 12.39 71 6.78 71 1 C65.39 1 59.78 1 54 1 C54 6.61 54 12.22 54 18 C48.06 18 42.12 18 36 18 C36 23.94 36 29.88 36 36 C41.94 36 47.88 36 54 36 C54 41.94 54 47.88 54 54 C42.12 54 30.24 54 18 54 C18 59.94 18 65.88 18 72 C29.88 72 41.76 72 54 72 C54 77.94 54 83.88 54 90 C48.06 90 42.12 90 36 90 C36 95.61 36 101.22 36 107 C30.06 107 24.12 107 18 107 C18 101.39 18 95.78 18 90 C6.12 90 -5.76 90 -18 90 C-18 84.06 -18 78.12 -18 72 C-12.06 72 -6.12 72 0 72 C0 66.06 0 60.12 0 54 C-5.61 54 -11.22 54 -17 54 C-17 48.06 -17 42.12 -17 36 C-11.39 36 -5.78 36 0 36 C0 24.12 0 12.24 0 0 Z " fill="#F8F8F8" transform="translate(96,178)"/>
<path d="M0 0 C35.31 0 70.62 0 107 0 C107 5.94 107 11.88 107 18 C101.06 18 95.12 18 89 18 C89 23.94 89 29.88 89 36 C94.94 36 100.88 36 107 36 C107 41.61 107 47.22 107 53 C101.06 53 95.12 53 89 53 C89 58.94 89 64.88 89 71 C83.39 71 77.78 71 72 71 C72 65.06 72 59.12 72 53 C60.12 53 48.24 53 36 53 C36 47.39 36 41.78 36 36 C30.06 36 24.12 36 18 36 C18 30.06 18 24.12 18 18 C12.06 18 6.12 18 0 18 C0 12.06 0 6.12 0 0 Z " fill="#020202" transform="translate(221,18)"/>
<path d="M0 0 C5.61 0 11.22 0 17 0 C17 5.61 17 11.22 17 17 C22.94 17 28.88 17 35 17 C35 23.27 35 29.54 35 36 C40.94 36 46.88 36 53 36 C53 47.55 53 59.1 53 71 C47.06 71 41.12 71 35 71 C35 65.06 35 59.12 35 53 C29.06 53 23.12 53 17 53 C17 58.94 17 64.88 17 71 C-0.49 71 -17.98 71 -36 71 C-36 59.12 -36 47.24 -36 35 C-41.94 35 -47.88 35 -54 35 C-54 29.39 -54 23.78 -54 18 C-36.18 18 -18.36 18 0 18 C0 12.06 0 6.12 0 0 Z " fill="#010101" transform="translate(204,482)"/>
<path d="M0 0 C5.94 0 11.88 0 18 0 C18 5.94 18 11.88 18 18 C23.94 18 29.88 18 36 18 C36 23.61 36 29.22 36 35 C47.88 35 59.76 35 72 35 C72 40.94 72 46.88 72 53 C77.61 53 83.22 53 89 53 C89 47.06 89 41.12 89 35 C106.82 35 124.64 35 143 35 C143 35.33 143 35.66 143 36 C131.12 36 119.24 36 107 36 C107 41.94 107 47.88 107 54 C101.39 54 95.78 54 90 54 C90 59.94 90 65.88 90 72 C84.06 72 78.12 72 72 72 C72 77.61 72 83.22 72 89 C77.61 89 83.22 89 89 89 C89 94.94 89 100.88 89 107 C83.39 107 77.78 107 72 107 C72 124.82 72 142.64 72 161 C60.12 161 48.24 161 36 161 C36 160.67 36 160.34 36 160 C47.55 160 59.1 160 71 160 C71 142.51 71 125.02 71 107 C65.39 107 59.78 107 54 107 C54 101.06 54 95.12 54 89 C59.61 89 65.22 89 71 89 C71 83.39 71 77.78 71 72 C67.52339844 72.01740234 67.52339844 72.01740234 63.9765625 72.03515625 C48.6124603 72.09472716 33.33251571 72.12532225 18 71 C18 65.06 18 59.12 18 53 C12.06 53 6.12 53 0 53 C0 35.51 0 18.02 0 0 Z " fill="#7D7D7D" transform="translate(221,36)"/>
<path d="M0 0 C11.88 0 23.76 0 36 0 C36 23.76 36 47.52 36 72 C41.94 72 47.88 72 54 72 C54 77.94 54 83.88 54 90 C48.06 90 42.12 90 36 90 C36 95.61 36 101.22 36 107 C41.94 107 47.88 107 54 107 C54 112.94 54 118.88 54 125 C48.06 125 42.12 125 36 125 C36 119.39 36 113.78 36 108 C30.06 108 24.12 108 18 108 C18 101.73 18 95.46 18 89 C12.06 89 6.12 89 0 89 C0 95.27 0 101.54 0 108 C-11.88 108 -23.76 108 -36 108 C-36 101.73 -36 95.46 -36 89 C-30.06 89 -24.12 89 -18 89 C-18 83.39 -18 77.78 -18 72 C-6.12 72 5.76 72 18 72 C18 60.12 18 48.24 18 36 C12.06 36 6.12 36 0 36 C0 24.12 0 12.24 0 0 Z " fill="#F7F7F7" transform="translate(346,89)"/>
<path d="M0 0 C11.88 0 23.76 0 36 0 C36 5.94 36 11.88 36 18 C41.94 18 47.88 18 54 18 C54 23.94 54 29.88 54 36 C48.06 36 42.12 36 36 36 C36 41.61 36 47.22 36 53 C53.82 53 71.64 53 90 53 C90 59.27 90 65.54 90 72 C78.12 72 66.24 72 54 72 C54 77.61 54 83.22 54 89 C42.12 89 30.24 89 18 89 C18 83.39 18 77.78 18 72 C12.39 72 6.78 72 1 72 C1 89.49 1 106.98 1 125 C0.67 125 0.34 125 0 125 C0 107.51 0 90.02 0 72 C-11.55 72 -23.1 72 -35 72 C-35 71.67 -35 71.34 -35 71 C-23.45 71 -11.9 71 0 71 C0 59.45 0 47.9 0 36 C5.94 36 11.88 36 18 36 C18 30.06 18 24.12 18 18 C12.06 18 6.12 18 0 18 C0 12.06 0 6.12 0 0 Z " fill="#F9F9F9" transform="translate(417,446)"/>
<path d="M0 0 C5.94 0 11.88 0 18 0 C18 5.94 18 11.88 18 18 C23.94 18 29.88 18 36 18 C36 23.94 36 29.88 36 36 C41.94 36 47.88 36 54 36 C54 41.94 54 47.88 54 54 C59.61 54 65.22 54 71 54 C71 48.06 71 42.12 71 36 C77.27 36 83.54 36 90 36 C90 41.94 90 47.88 90 54 C84.06 54 78.12 54 72 54 C72 59.94 72 65.88 72 72 C66.06 72 60.12 72 54 72 C54 89.49 54 106.98 54 125 C53.67 125 53.34 125 53 125 C53 107.51 53 90.02 53 72 C47.39 72 41.78 72 36 72 C36 77.94 36 83.88 36 90 C30.06 90 24.12 90 18 90 C18 84.06 18 78.12 18 72 C12.06 72 6.12 72 0 72 C0 71.67 0 71.34 0 71 C5.94 71 11.88 71 18 71 C18 65.39 18 59.78 18 54 C12.06 54 6.12 54 0 54 C0 36.18 0 18.36 0 0 Z " fill="#FBFBFB" transform="translate(560,321)"/>
<path d="M0 0 C5.94 0 11.88 0 18 0 C18 5.61 18 11.22 18 17 C23.94 17 29.88 17 36 17 C36 11.39 36 5.78 36 0 C41.94 0 47.88 0 54 0 C54 5.61 54 11.22 54 17 C59.94 17 65.88 17 72 17 C72 22.94 72 28.88 72 35 C77.61 35 83.22 35 89 35 C89 35.33 89 35.66 89 36 C83.39 36 77.78 36 72 36 C72 41.61 72 47.22 72 53 C83.55 53 95.1 53 107 53 C107 58.94 107 64.88 107 71 C95.12 71 83.24 71 71 71 C71 65.39 71 59.78 71 54 C65.39 54 59.78 54 54 54 C54 59.61 54 65.22 54 71 C42.12 71 30.24 71 18 71 C18 65.06 18 59.12 18 53 C23.94 53 29.88 53 36 53 C36 47.39 36 41.78 36 36 C30.06 36 24.12 36 18 36 C18 30.06 18 24.12 18 18 C12.06 18 6.12 18 0 18 C0 12.06 0 6.12 0 0 Z " fill="#FAFAFA" transform="translate(221,268)"/>
<path d="M0 0 C5.61 0 11.22 0 17 0 C17 5.94 17 11.88 17 18 C22.94 18 28.88 18 35 18 C35 23.94 35 29.88 35 36 C23.45 36 11.9 36 0 36 C0 41.94 0 47.88 0 54 C11.55 54 23.1 54 35 54 C35 59.94 35 65.88 35 72 C29.39 72 23.78 72 18 72 C18 77.61 18 83.22 18 89 C23.61 89 29.22 89 35 89 C35 94.94 35 100.88 35 107 C29.06 107 23.12 107 17 107 C17 101.39 17 95.78 17 90 C11.06 90 5.12 90 -1 90 C-1 78.12 -1 66.24 -1 54 C-12.55 54 -24.1 54 -36 54 C-36 48.06 -36 42.12 -36 36 C-30.06 36 -24.12 36 -18 36 C-18 30.06 -18 24.12 -18 18 C-12.06 18 -6.12 18 0 18 C0 12.06 0 6.12 0 0 Z " fill="#FDFDFD" transform="translate(525,214)"/>
<path d="M0 0 C17.49 0 34.98 0 53 0 C53 5.94 53 11.88 53 18 C41.12 18 29.24 18 17 18 C17 23.61 17 29.22 17 35 C11.06 35 5.12 35 -1 35 C-1 40.94 -1 46.88 -1 53 C-6.61 53 -12.22 53 -18 53 C-18 58.94 -18 64.88 -18 71 C-29.88 71 -41.76 71 -54 71 C-54 59.45 -54 47.9 -54 36 C-42.12 36 -30.24 36 -18 36 C-18 30.06 -18 24.12 -18 18 C-9.585 17.505 -9.585 17.505 -1 17 C-0.67 11.39 -0.34 5.78 0 0 Z " fill="#030303" transform="translate(97,375)"/>
<path d="M0 0 C5.94 0 11.88 0 18 0 C18 5.61 18 11.22 18 17 C29.55 17 41.1 17 53 17 C53 11.39 53 5.78 53 0 C53.33 0 53.66 0 54 0 C54 5.94 54 11.88 54 18 C59.94 18 65.88 18 72 18 C72 12.06 72 6.12 72 0 C77.61 0 83.22 0 89 0 C89 5.94 89 11.88 89 18 C94.94 18 100.88 18 107 18 C107 23.94 107 29.88 107 36 C95.45 36 83.9 36 72 36 C72 53.49 72 70.98 72 89 C66.06 89 60.12 89 54 89 C54 77.12 54 65.24 54 53 C48.06 53 42.12 53 36 53 C36 47.06 36 41.12 36 35 C41.61 35 47.22 35 53 35 C53 29.39 53 23.78 53 18 C35.51 18 18.02 18 0 18 C0 12.06 0 6.12 0 0 Z " fill="#080808" transform="translate(221,589)"/>
<path d="M0 0 C17.82 0 35.64 0 54 0 C54 17.82 54 35.64 54 54 C36.18 54 18.36 54 0 54 C0 36.18 0 18.36 0 0 Z " fill="#F9F9F9" transform="translate(542,535)"/>
<path d="M0 0 C11.88 0 23.76 0 36 0 C36 5.61 36 11.22 36 17 C41.94 17 47.88 17 54 17 C54 28.88 54 40.76 54 53 C48.06 53 42.12 53 36 53 C36 58.94 36 64.88 36 71 C30.06 71 24.12 71 18 71 C18 65.06 18 59.12 18 53 C6.12 53 -5.76 53 -18 53 C-18 47.06 -18 41.12 -18 35 C-6.12 35 5.76 35 18 35 C18 29.06 18 23.12 18 17 C12.06 17 6.12 17 0 17 C0 11.39 0 5.78 0 0 Z " fill="#F9F9F9" transform="translate(346,411)"/>
<path d="M0 0 C17.49 0 34.98 0 53 0 C53 17.49 53 34.98 53 53 C35.51 53 18.02 53 0 53 C0 35.51 0 18.02 0 0 Z " fill="#000000" transform="translate(61,589)"/>
<path d="M0 0 C17.49 0 34.98 0 53 0 C53 17.49 53 34.98 53 53 C35.51 53 18.02 53 0 53 C0 35.51 0 18.02 0 0 Z " fill="#000000" transform="translate(596,54)"/>
<path d="M0 0 C17.49 0 34.98 0 53 0 C53 17.49 53 34.98 53 53 C35.51 53 18.02 53 0 53 C0 35.51 0 18.02 0 0 Z " fill="#000000" transform="translate(61,54)"/>
<path d="M0 0 C0.33 0 0.66 0 1 0 C1 11.88 1 23.76 1 36 C-4.94 36 -10.88 36 -17 36 C-17 41.61 -17 47.22 -17 53 C0.49 53 17.98 53 36 53 C36 58.94 36 64.88 36 71 C30.06 71 24.12 71 18 71 C18 76.94 18 82.88 18 89 C12.39 89 6.78 89 1 89 C1 83.06 1 77.12 1 71 C-4.94 71 -10.88 71 -17 71 C-17 65.39 -17 59.78 -17 54 C-22.94 54 -28.88 54 -35 54 C-35 59.61 -35 65.22 -35 71 C-40.94 71 -46.88 71 -53 71 C-53 65.06 -53 59.12 -53 53 C-47.06 53 -41.12 53 -35 53 C-35 47.39 -35 41.78 -35 36 C-40.94 36 -46.88 36 -53 36 C-53 30.06 -53 24.12 -53 18 C-41.12 18 -29.24 18 -17 18 C-17 23.61 -17 29.22 -17 35 C-11.39 35 -5.78 35 0 35 C0 23.45 0 11.9 0 0 Z " fill="#303030" transform="translate(399,250)"/>
<path d="M0 0 C11.88 0 23.76 0 36 0 C36 17.49 36 34.98 36 53 C47.55 53 59.1 53 71 53 C71 58.94 71 64.88 71 71 C59.45 71 47.9 71 36 71 C36 76.94 36 82.88 36 89 C30.06 89 24.12 89 18 89 C18 83.06 18 77.12 18 71 C23.61 71 29.22 71 35 71 C35 65.06 35 59.12 35 53 C29.39 53 23.78 53 18 53 C18 47.06 18 41.12 18 35 C12.06 35 6.12 35 0 35 C0 23.45 0 11.9 0 0 Z " fill="#FEFEFE" transform="translate(471,393)"/>
<path d="M0 0 C5.61 0 11.22 0 17 0 C17 5.61 17 11.22 17 17 C28.88 17 40.76 17 53 17 C53 28.88 53 40.76 53 53 C35.51 53 18.02 53 0 53 C0 47.06 0 41.12 0 35 C-5.94 35 -11.88 35 -18 35 C-18 29.06 -18 23.12 -18 17 C-12.06 17 -6.12 17 0 17 C0 11.39 0 5.78 0 0 Z " fill="#030303" transform="translate(150,179)"/>
<path d="M0 0 C5.94 0 11.88 0 18 0 C18 11.55 18 23.1 18 35 C23.61 35 29.22 35 35 35 C35 46.88 35 58.76 35 71 C29.06 71 23.12 71 17 71 C17 82.88 17 94.76 17 107 C11.39 107 5.78 107 0 107 C0 71.69 0 36.38 0 0 Z " fill="#030303" transform="translate(168,54)"/>
<path d="M0 0 C5.61 0 11.22 0 17 0 C17 5.94 17 11.88 17 18 C28.88 18 40.76 18 53 18 C53 35.82 53 53.64 53 72 C47.06 72 41.12 72 35 72 C35 66.06 35 60.12 35 54 C29.45026879 54.03957481 29.45026879 54.03957481 23.90063477 54.09008789 C21.93354026 54.09723091 19.96646379 54.05031893 18 54 C17 53 17 53 16.90234375 49.18359375 C16.90808862 47.60152953 16.92110407 46.01948969 16.9375 44.4375 C16.958125 41.653125 16.97875 38.86875 17 36 C11.39 36 5.78 36 0 36 C0 24.12 0 12.24 0 0 Z " fill="#040404" transform="translate(632,535)"/>
<path d="M0 0 C5.61 0 11.22 0 17 0 C17 5.94 17 11.88 17 18 C28.88 18 40.76 18 53 18 C53 23.94 53 29.88 53 36 C47.39 36 41.78 36 36 36 C36 41.61 36 47.22 36 53 C30.06 53 24.12 53 18 53 C18 47.39 18 41.78 18 36 C0.18 36 -17.64 36 -36 36 C-36 30.06 -36 24.12 -36 18 C-24.12 18 -12.24 18 0 18 C0 12.06 0 6.12 0 0 Z " fill="#040404" transform="translate(382,571)"/>
<path d="M0 0 C11.88 0 23.76 0 36 0 C36 17.49 36 34.98 36 53 C30.06 53 24.12 53 18 53 C18 47.39 18 41.78 18 36 C12.06 36 6.12 36 0 36 C0 41.61 0 47.22 0 53 C-5.61 53 -11.22 53 -17 53 C-17 41.45 -17 29.9 -17 18 C-11.39 18 -5.78 18 0 18 C0 12.06 0 6.12 0 0 Z " fill="#FCFCFC" transform="translate(328,482)"/>
<path d="M0 0 C11.55 0 23.1 0 35 0 C35 5.61 35 11.22 35 17 C29.39 17 23.78 17 18 17 C18 22.94 18 28.88 18 35 C6.12 35 -5.76 35 -18 35 C-18 40.94 -18 46.88 -18 53 C-23.61 53 -29.22 53 -35 53 C-35 47.06 -35 41.12 -35 35 C-40.94 35 -46.88 35 -53 35 C-53 29.39 -53 23.78 -53 18 C-35.51 18 -18.02 18 0 18 C0 12.06 0 6.12 0 0 Z " fill="#FDFDFD" transform="translate(239,607)"/>
<path d="M0 0 C11.88 0 23.76 0 36 0 C36 11.88 36 23.76 36 36 C30.06 36 24.12 36 18 36 C18 41.61 18 47.22 18 53 C23.94 53 29.88 53 36 53 C36 70.82 36 88.64 36 107 C35.67 107 35.34 107 35 107 C35 89.51 35 72.02 35 54 C23.45 54 11.9 54 0 54 C0 47.73 0 41.46 0 35 C-5.94 35 -11.88 35 -18 35 C-18 29.39 -18 23.78 -18 18 C-12.06 18 -6.12 18 0 18 C0 12.06 0 6.12 0 0 Z " fill="#F6F6F6" transform="translate(239,464)"/>
<path d="M0 0 C29.37 0 58.74 0 89 0 C89 5.94 89 11.88 89 18 C71.51 18 54.02 18 36 18 C36 23.61 36 29.22 36 35 C30.06 35 24.12 35 18 35 C18 29.39 18 23.78 18 18 C12.06 18 6.12 18 0 18 C0 12.06 0 6.12 0 0 Z " fill="#050505" transform="translate(560,161)"/>
<path d="M0 0 C5.61 0 11.22 0 17 0 C17 5.94 17 11.88 17 18 C22.94 18 28.88 18 35 18 C35 12.06 35 6.12 35 0 C46.55 0 58.1 0 70 0 C70 5.94 70 11.88 70 18 C64.39 18 58.78 18 53 18 C53 23.61 53 29.22 53 35 C35.51 35 18.02 35 0 35 C0 23.45 0 11.9 0 0 Z " fill="#FCFCFC" transform="translate(436,36)"/>
<path d="M0 0 C11.88 0 23.76 0 36 0 C36 5.61 36 11.22 36 17 C41.61 17 47.22 17 53 17 C53 11.39 53 5.78 53 0 C58.94 0 64.88 0 71 0 C71 5.94 71 11.88 71 18 C65.39 18 59.78 18 54 18 C54.01160156 20.51496094 54.02320313 23.02992187 54.03515625 25.62109375 C54.04294673 28.0469551 54.04902354 30.47281507 54.05493164 32.89868164 C54.0599719 34.58944316 54.06680405 36.28020029 54.07543945 37.97094727 C54.08751857 40.39600707 54.09323123 42.82100944 54.09765625 45.24609375 C54.10281754 46.00651474 54.10797882 46.76693573 54.11329651 47.55039978 C54.11349238 49.3673257 54.06197277 51.18413127 54 53 C53.67 53.33 53.34 53.66 53 54 C47.06 54 41.12 54 35 54 C35 42.12 35 30.24 35 18 C23.45 18 11.9 18 0 18 C0 12.06 0 6.12 0 0 Z " fill="#1B1B1B" transform="translate(471,18)"/>
<path d="M0 0 C5.94 0 11.88 0 18 0 C18 29.37 18 58.74 18 89 C12.06 89 6.12 89 0 89 C0 59.63 0 30.26 0 0 Z " fill="#020202" transform="translate(25,446)"/>
<path d="M0 0 C5.94 0 11.88 0 18 0 C18 5.61 18 11.22 18 17 C23.94 17 29.88 17 36 17 C36 28.88 36 40.76 36 53 C30.06 53 24.12 53 18 53 C18 47.06 18 41.12 18 35 C6.12 35 -5.76 35 -18 35 C-18 29.39 -18 23.78 -18 18 C-12.06 18 -6.12 18 0 18 C0 12.06 0 6.12 0 0 Z " fill="#F9F9F9" transform="translate(453,179)"/>
<path d="M0 0 C5.61 0 11.22 0 17 0 C17 5.61 17 11.22 17 17 C28.88 17 40.76 17 53 17 C53 22.94 53 28.88 53 35 C41.12 35 29.24 35 17 35 C17 40.94 17 46.88 17 53 C11.39 53 5.78 53 0 53 C0 35.51 0 18.02 0 0 Z " fill="#010101" transform="translate(418,518)"/>
<path d="M0 0 C6.27 0 12.54 0 19 0 C19 5.61 19 11.22 19 17 C30.55 17 42.1 17 54 17 C54 17.33 54 17.66 54 18 C42.45 18 30.9 18 19 18 C19 23.61 19 29.22 19 35 C24.61 35 30.22 35 36 35 C36 40.94 36 46.88 36 53 C30.06 53 24.12 53 18 53 C18 47.06 18 41.12 18 35 C12.39 35 6.78 35 1 35 C1 40.94 1 46.88 1 53 C-4.94 53 -10.88 53 -17 53 C-17 47.06 -17 41.12 -17 35 C-11.39 35 -5.78 35 0 35 C0 29.39 0 23.78 0 18 C-11.55 18 -23.1 18 -35 18 C-35 17.67 -35 17.34 -35 17 C-23.45 17 -11.9 17 0 17 C0 11.39 0 5.78 0 0 Z " fill="#FAFAFA" transform="translate(613,286)"/>
<path d="M0 0 C17.82 0 35.64 0 54 0 C54 11.88 54 23.76 54 36 C48.06 36 42.12 36 36 36 C36 30.06 36 24.12 36 18 C24.12 18 12.24 18 0 18 C0 12.06 0 6.12 0 0 Z " fill="#F7F7F7" transform="translate(328,446)"/>
<path d="M0 0 C5.94 0 11.88 0 18 0 C18 5.94 18 11.88 18 18 C23.94 18 29.88 18 36 18 C36 23.94 36 29.88 36 36 C30.06 36 24.12 36 18 36 C18 41.94 18 47.88 18 54 C12.06 54 6.12 54 0 54 C0 36.18 0 18.36 0 0 Z " fill="#FAFAFA" transform="translate(560,321)"/>
<path d="M0 0 C11.88 0 23.76 0 36 0 C36 17.82 36 35.64 36 54 C30.06 54 24.12 54 18 54 C18 42.12 18 30.24 18 18 C12.06 18 6.12 18 0 18 C0 12.06 0 6.12 0 0 Z " fill="#060606" transform="translate(649,196)"/>
<path d="M0 0 C5.94 0 11.88 0 18 0 C18 17.49 18 34.98 18 53 C6.12 53 -5.76 53 -18 53 C-18 47.06 -18 41.12 -18 35 C-12.06 35 -6.12 35 0 35 C0 23.45 0 11.9 0 0 Z " fill="#030303" transform="translate(667,625)"/>
<path d="M0 0 C5.94 0 11.88 0 18 0 C18 5.94 18 11.88 18 18 C23.61 18 29.22 18 35 18 C35 29.88 35 41.76 35 54 C23.45 54 11.9 54 0 54 C0 48.06 0 42.12 0 36 C5.61 36 11.22 36 17 36 C17 30.06 17 24.12 17 18 C11.39 18 5.78 18 0 18 C0 12.06 0 6.12 0 0 Z " fill="#030303" transform="translate(614,214)"/>
<path d="M0 0 C5.94 0 11.88 0 18 0 C18 5.94 18 11.88 18 18 C23.94 18 29.88 18 36 18 C36 23.61 36 29.22 36 35 C30.06 35 24.12 35 18 35 C18 40.94 18 46.88 18 53 C12.06 53 6.12 53 0 53 C0 35.51 0 18.02 0 0 Z " fill="#FBFBFB" transform="translate(221,36)"/>
<path d="M0 0 C5.61 0 11.22 0 17 0 C17 6.27 17 12.54 17 19 C22.94 19 28.88 19 35 19 C35 24.61 35 30.22 35 36 C17.51 36 0.02 36 -18 36 C-18 30.06 -18 24.12 -18 18 C-12.06 18 -6.12 18 0 18 C0 12.06 0 6.12 0 0 Z " fill="#020202" transform="translate(186,642)"/>
<path d="M0 0 C17.49 0 34.98 0 53 0 C53 5.61 53 11.22 53 17 C47.06 17 41.12 17 35 17 C35 22.94 35 28.88 35 35 C29.39 35 23.78 35 18 35 C18 29.06 18 23.12 18 17 C12.06 17 6.12 17 0 17 C0 11.39 0 5.78 0 0 Z " fill="#000000" transform="translate(382,304)"/>
<path d="M0 0 C23.43 0 46.86 0 71 0 C71 5.61 71 11.22 71 17 C47.57 17 24.14 17 0 17 C0 11.39 0 5.78 0 0 Z " fill="#FEFEFE" transform="translate(132,286)"/>
<path d="M0 0 C0.33 0 0.66 0 1 0 C1 17.49 1 34.98 1 53 C12.55 53 24.1 53 36 53 C36 58.94 36 64.88 36 71 C24.45 71 12.9 71 1 71 C1 76.94 1 82.88 1 89 C-4.94 89 -10.88 89 -17 89 C-17 83.06 -17 77.12 -17 71 C-11.39 71 -5.78 71 0 71 C0 47.57 0 24.14 0 0 Z " fill="#EEEEEE" transform="translate(506,393)"/>
<path d="M0 0 C5.94 0 11.88 0 18 0 C18 5.94 18 11.88 18 18 C23.94 18 29.88 18 36 18 C36 23.94 36 29.88 36 36 C24.12 36 12.24 36 0 36 C0 24.12 0 12.24 0 0 Z " fill="#060606" transform="translate(310,642)"/>
<path d="M0 0 C5.94 0 11.88 0 18 0 C18 5.94 18 11.88 18 18 C23.94 18 29.88 18 36 18 C36 23.94 36 29.88 36 36 C24.12 36 12.24 36 0 36 C0 24.12 0 12.24 0 0 Z " fill="#F5F5F5" transform="translate(524,482)"/>
<path d="M0 0 C11.88 0 23.76 0 36 0 C36 5.94 36 11.88 36 18 C30.06 18 24.12 18 18 18 C18 23.94 18 29.88 18 36 C12.06 36 6.12 36 0 36 C0 24.12 0 12.24 0 0 Z " fill="#080808" transform="translate(417,250)"/>
<path d="M0 0 C11.55 0 23.1 0 35 0 C35 11.88 35 23.76 35 36 C29.06 36 23.12 36 17 36 C17 30.06 17 24.12 17 18 C11.39 18 5.78 18 0 18 C0 12.06 0 6.12 0 0 Z " fill="#050505" transform="translate(400,642)"/>
<path d="M0 0 C5.94 0 11.88 0 18 0 C18 17.49 18 34.98 18 53 C12.06 53 6.12 53 0 53 C0 35.51 0 18.02 0 0 Z " fill="#020202" transform="translate(453,589)"/>
<path d="M0 0 C17.49 0 34.98 0 53 0 C53 5.94 53 11.88 53 18 C35.51 18 18.02 18 0 18 C0 12.06 0 6.12 0 0 Z " fill="#040404" transform="translate(525,250)"/>
<path d="M0 0 C11.55 0 23.1 0 35 0 C35 5.94 35 11.88 35 18 C29.06 18 23.12 18 17 18 C17 23.94 17 29.88 17 36 C11.39 36 5.78 36 0 36 C0 24.12 0 12.24 0 0 Z " fill="#FBFBFB" transform="translate(489,89)"/>
<path d="M0 0 C5.61 0 11.22 0 17 0 C17 11.55 17 23.1 17 35 C5.45 35 -6.1 35 -18 35 C-18 29.06 -18 23.12 -18 17 C-12.06 17 -6.12 17 0 17 C0 11.39 0 5.78 0 0 Z " fill="#010101" transform="translate(150,429)"/>
<path d="M0 0 C5.94 0 11.88 0 18 0 C18 11.55 18 23.1 18 35 C6.45 35 -5.1 35 -17 35 C-17 29.39 -17 23.78 -17 18 C-11.39 18 -5.78 18 0 18 C0 12.06 0 6.12 0 0 Z " fill="#020202" transform="translate(417,36)"/>
<path d="M0 0 C11.55 0 23.1 0 35 0 C35 5.61 35 11.22 35 17 C29.06 17 23.12 17 17 17 C17 22.94 17 28.88 17 35 C11.39 35 5.78 35 0 35 C0 23.45 0 11.9 0 0 Z " fill="#FDFDFD" transform="translate(525,268)"/>
<path d="M0 0 C11.55 0 23.1 0 35 0 C35 5.61 35 11.22 35 17 C29.06 17 23.12 17 17 17 C17 22.94 17 28.88 17 35 C11.39 35 5.78 35 0 35 C0 23.45 0 11.9 0 0 Z " fill="#FEFEFE" transform="translate(311,215)"/>
<path d="M0 0 C5.61 0 11.22 0 17 0 C17 5.94 17 11.88 17 18 C22.94 18 28.88 18 35 18 C35 23.61 35 29.22 35 35 C23.45 35 11.9 35 0 35 C0 23.45 0 11.9 0 0 Z " fill="#010101" transform="translate(204,125)"/>
<path d="M0 0 C5.61 0 11.22 0 17 0 C17 17.49 17 34.98 17 53 C11.39 53 5.78 53 0 53 C0 35.51 0 18.02 0 0 Z " fill="#000000" transform="translate(204,36)"/>
<path d="M0 0 C11.88 0 23.76 0 36 0 C36 11.88 36 23.76 36 36 C41.61 36 47.22 36 53 36 C53 24.12 53 12.24 53 0 C64.88 0 76.76 0 89 0 C89 0.33 89 0.66 89 1 C77.45 1 65.9 1 54 1 C54 12.55 54 24.1 54 36 C59.61 36 65.22 36 71 36 C71 41.94 71 47.88 71 54 C65.39 54 59.78 54 54 54 C54 65.55 54 77.1 54 89 C53.67 89 53.34 89 53 89 C53 77.45 53 65.9 53 54 C47.06 54 41.12 54 35 54 C35 36.51 35 19.02 35 1 C23.45 1 11.9 1 0 1 C0 0.67 0 0.34 0 0 Z " fill="#CECECE" transform="translate(257,214)"/>
<path d="M0 0 C5.94 0 11.88 0 18 0 C18 5.61 18 11.22 18 17 C23.94 17 29.88 17 36 17 C36 23.27 36 29.54 36 36 C30.06 36 24.12 36 18 36 C18 30.06 18 24.12 18 18 C12.06 18 6.12 18 0 18 C0 12.06 0 6.12 0 0 Z " fill="#E4E4E4" transform="translate(471,268)"/>
<path d="M0 0 C11.88 0 23.76 0 36 0 C36 5.94 36 11.88 36 18 C24.12 18 12.24 18 0 18 C0 12.06 0 6.12 0 0 Z " fill="#060606" transform="translate(453,660)"/>
<path d="M0 0 C11.88 0 23.76 0 36 0 C36 5.94 36 11.88 36 18 C24.12 18 12.24 18 0 18 C0 12.06 0 6.12 0 0 Z " fill="#060606" transform="translate(221,642)"/>
<path d="M0 0 C11.88 0 23.76 0 36 0 C36 5.94 36 11.88 36 18 C24.12 18 12.24 18 0 18 C0 12.06 0 6.12 0 0 Z " fill="#050505" transform="translate(328,464)"/>
<path d="M0 0 C11.88 0 23.76 0 36 0 C36 5.94 36 11.88 36 18 C24.12 18 12.24 18 0 18 C0 12.06 0 6.12 0 0 Z " fill="#FCFCFC" transform="translate(328,446)"/>
<path d="M0 0 C11.88 0 23.76 0 36 0 C36 5.94 36 11.88 36 18 C24.12 18 12.24 18 0 18 C0 12.06 0 6.12 0 0 Z " fill="#030303" transform="translate(239,446)"/>
<path d="M0 0 C11.88 0 23.76 0 36 0 C36 5.94 36 11.88 36 18 C24.12 18 12.24 18 0 18 C0 12.06 0 6.12 0 0 Z " fill="#F4F4F4" transform="translate(417,410)"/>
<path d="M0 0 C11.88 0 23.76 0 36 0 C36 5.94 36 11.88 36 18 C24.12 18 12.24 18 0 18 C0 12.06 0 6.12 0 0 Z " fill="#F5F5F5" transform="translate(506,357)"/>
<path d="M0 0 C5.94 0 11.88 0 18 0 C18 11.88 18 23.76 18 36 C12.06 36 6.12 36 0 36 C0 24.12 0 12.24 0 0 Z " fill="#040404" transform="translate(453,339)"/>
<path d="M0 0 C5.94 0 11.88 0 18 0 C18 11.88 18 23.76 18 36 C12.06 36 6.12 36 0 36 C0 24.12 0 12.24 0 0 Z " fill="#040404" transform="translate(346,339)"/>
<path d="M0 0 C11.88 0 23.76 0 36 0 C36 5.94 36 11.88 36 18 C24.12 18 12.24 18 0 18 C0 12.06 0 6.12 0 0 Z " fill="#080808" transform="translate(239,321)"/>
<path d="M0 0 C11.88 0 23.76 0 36 0 C36 5.94 36 11.88 36 18 C24.12 18 12.24 18 0 18 C0 12.06 0 6.12 0 0 Z " fill="#020202" transform="translate(114,232)"/>
<path d="M0 0 C11.55 0 23.1 0 35 0 C35 5.94 35 11.88 35 18 C23.45 18 11.9 18 0 18 C0 12.06 0 6.12 0 0 Z " fill="#040404" transform="translate(293,321)"/>
<path d="M0 0 C5.94 0 11.88 0 18 0 C18 11.55 18 23.1 18 35 C12.06 35 6.12 35 0 35 C0 23.45 0 11.9 0 0 Z " fill="#020202" transform="translate(25,304)"/>
<path d="M0 0 C5.94 0 11.88 0 18 0 C18 11.55 18 23.1 18 35 C12.06 35 6.12 35 0 35 C0 23.45 0 11.9 0 0 Z " fill="#020202" transform="translate(25,161)"/>
<path d="M0 0 C11.55 0 23.1 0 35 0 C35 5.94 35 11.88 35 18 C23.45 18 11.9 18 0 18 C0 12.06 0 6.12 0 0 Z " fill="#040404" transform="translate(257,89)"/>
<path d="M0 0 C11.88 0 23.76 0 36 0 C36 5.61 36 11.22 36 17 C24.12 17 12.24 17 0 17 C0 11.39 0 5.78 0 0 Z " fill="#030303" transform="translate(114,411)"/>
<path d="M0 0 C11.55 0 23.1 0 35 0 C35 5.61 35 11.22 35 17 C23.45 17 11.9 17 0 17 C0 11.39 0 5.78 0 0 Z " fill="#000000" transform="translate(650,518)"/>
<path d="M0 0 C5.61 0 11.22 0 17 0 C17 11.55 17 23.1 17 35 C11.39 35 5.78 35 0 35 C0 23.45 0 11.9 0 0 Z " fill="#FEFEFE" transform="translate(168,429)"/>
<path d="M0 0 C5.61 0 11.22 0 17 0 C17 11.55 17 23.1 17 35 C11.39 35 5.78 35 0 35 C0 23.45 0 11.9 0 0 Z " fill="#000000" transform="translate(97,429)"/>
<path d="M0 0 C5.61 0 11.22 0 17 0 C17 11.55 17 23.1 17 35 C11.39 35 5.78 35 0 35 C0 23.45 0 11.9 0 0 Z " fill="#000000" transform="translate(275,375)"/>
<path d="M0 0 C5.61 0 11.22 0 17 0 C17 11.55 17 23.1 17 35 C11.39 35 5.78 35 0 35 C0 23.45 0 11.9 0 0 Z " fill="#FEFEFE" transform="translate(204,304)"/>
<path d="M0 0 C5.61 0 11.22 0 17 0 C17 11.55 17 23.1 17 35 C11.39 35 5.78 35 0 35 C0 23.45 0 11.9 0 0 Z " fill="#FEFEFE" transform="translate(43,304)"/>
<path d="M0 0 C11.55 0 23.1 0 35 0 C35 5.61 35 11.22 35 17 C23.45 17 11.9 17 0 17 C0 11.39 0 5.78 0 0 Z " fill="#FEFEFE" transform="translate(471,161)"/>
<path d="M0 0 C5.61 0 11.22 0 17 0 C17 11.55 17 23.1 17 35 C11.39 35 5.78 35 0 35 C0 23.45 0 11.9 0 0 Z " fill="#FEFEFE" transform="translate(186,125)"/>
<path d="M0 0 C5.61 0 11.22 0 17 0 C17 11.55 17 23.1 17 35 C11.39 35 5.78 35 0 35 C0 23.45 0 11.9 0 0 Z " fill="#FDFDFD" transform="translate(204,90)"/>
<path d="M0 0 C11.55 0 23.1 0 35 0 C35 5.61 35 11.22 35 17 C23.45 17 11.9 17 0 17 C0 11.39 0 5.78 0 0 Z " fill="#FEFEFE" transform="translate(257,72)"/>
<path d="M0 0 C0.33 0 0.66 0 1 0 C1 29.37 1 58.74 1 89 C-4.94 89 -10.88 89 -17 89 C-17 100.55 -17 112.1 -17 124 C-11.06 124 -5.12 124 1 124 C1 135.88 1 147.76 1 160 C0.67 160 0.34 160 0 160 C0 148.45 0 136.9 0 125 C-5.94 125 -11.88 125 -18 125 C-18 113.12 -18 101.24 -18 89 C-23.61 89 -29.22 89 -35 89 C-35 83.06 -35 77.12 -35 71 C-29.06 71 -23.12 71 -17 71 C-17 76.61 -17 82.22 -17 88 C-11.39 88 -5.78 88 0 88 C0 58.96 0 29.92 0 0 Z " fill="#D2D2D2" transform="translate(542,54)"/>
<path d="M0 0 C5.94 0 11.88 0 18 0 C18 5.94 18 11.88 18 18 C12.39 18 6.78 18 1 18 C1 29.88 1 41.76 1 54 C0.67 54 0.34 54 0 54 C0 42.45 0 30.9 0 19 C-5.61 19 -11.22 19 -17 19 C-17 18.67 -17 18.34 -17 18 C-11.39 18 -5.78 18 0 18 C0 12.06 0 6.12 0 0 Z " fill="#171717" transform="translate(399,89)"/>
<path d="M0 0 C5.94 0 11.88 0 18 0 C18 11.88 18 23.76 18 36 C17.67 36 17.34 36 17 36 C17 30.06 17 24.12 17 18 C11.39 18 5.78 18 0 18 C0 12.06 0 6.12 0 0 Z " fill="#121212" transform="translate(614,214)"/>
<path d="M0 0 C5.94 0 11.88 0 18 0 C18 5.94 18 11.88 18 18 C12.06 18 6.12 18 0 18 C0 12.06 0 6.12 0 0 Z " fill="#080808" transform="translate(542,660)"/>
<path d="M0 0 C5.94 0 11.88 0 18 0 C18 5.94 18 11.88 18 18 C12.06 18 6.12 18 0 18 C0 12.06 0 6.12 0 0 Z " fill="#F7F7F7" transform="translate(221,589)"/>
<path d="M0 0 C5.94 0 11.88 0 18 0 C18 5.94 18 11.88 18 18 C12.06 18 6.12 18 0 18 C0 12.06 0 6.12 0 0 Z " fill="#060606" transform="translate(560,553)"/>
<path d="M0 0 C5.94 0 11.88 0 18 0 C18 5.94 18 11.88 18 18 C12.06 18 6.12 18 0 18 C0 12.06 0 6.12 0 0 Z " fill="#F1F1F1" transform="translate(203,517)"/>
<path d="M0 0 C5.94 0 11.88 0 18 0 C18 5.94 18 11.88 18 18 C12.06 18 6.12 18 0 18 C0 12.06 0 6.12 0 0 Z " fill="#F0F0F0" transform="translate(382,482)"/>
<path d="M0 0 C5.94 0 11.88 0 18 0 C18 5.94 18 11.88 18 18 C12.06 18 6.12 18 0 18 C0 12.06 0 6.12 0 0 Z " fill="#F5F5F5" transform="translate(310,464)"/>
<path d="M0 0 C5.94 0 11.88 0 18 0 C18 5.94 18 11.88 18 18 C12.06 18 6.12 18 0 18 C0 12.06 0 6.12 0 0 Z " fill="#060606" transform="translate(221,464)"/>
<path d="M0 0 C5.94 0 11.88 0 18 0 C18 5.94 18 11.88 18 18 C12.06 18 6.12 18 0 18 C0 12.06 0 6.12 0 0 Z " fill="#050505" transform="translate(364,446)"/>
<path d="M0 0 C5.94 0 11.88 0 18 0 C18 5.94 18 11.88 18 18 C12.06 18 6.12 18 0 18 C0 12.06 0 6.12 0 0 Z " fill="#0A0A0A" transform="translate(578,393)"/>
<path d="M0 0 C5.94 0 11.88 0 18 0 C18 5.94 18 11.88 18 18 C12.06 18 6.12 18 0 18 C0 12.06 0 6.12 0 0 Z " fill="#060606" transform="translate(578,357)"/>
<path d="M0 0 C5.94 0 11.88 0 18 0 C18 5.94 18 11.88 18 18 C12.06 18 6.12 18 0 18 C0 12.06 0 6.12 0 0 Z " fill="#0A0A0A" transform="translate(310,357)"/>
<path d="M0 0 C5.94 0 11.88 0 18 0 C18 5.94 18 11.88 18 18 C12.06 18 6.12 18 0 18 C0 12.06 0 6.12 0 0 Z " fill="#030303" transform="translate(132,339)"/>
<path d="M0 0 C5.94 0 11.88 0 18 0 C18 5.94 18 11.88 18 18 C12.06 18 6.12 18 0 18 C0 12.06 0 6.12 0 0 Z " fill="#080808" transform="translate(435,321)"/>
<path d="M0 0 C5.94 0 11.88 0 18 0 C18 5.94 18 11.88 18 18 C12.06 18 6.12 18 0 18 C0 12.06 0 6.12 0 0 Z " fill="#F8F8F8" transform="translate(239,321)"/>
<path d="M0 0 C5.94 0 11.88 0 18 0 C18 5.94 18 11.88 18 18 C12.06 18 6.12 18 0 18 C0 12.06 0 6.12 0 0 Z " fill="#F8F8F8" transform="translate(560,250)"/>
<path d="M0 0 C5.94 0 11.88 0 18 0 C18 5.94 18 11.88 18 18 C12.06 18 6.12 18 0 18 C0 12.06 0 6.12 0 0 Z " fill="#070707" transform="translate(221,214)"/>
<path d="M0 0 C5.94 0 11.88 0 18 0 C18 5.94 18 11.88 18 18 C12.06 18 6.12 18 0 18 C0 12.06 0 6.12 0 0 Z " fill="#0B0B0B" transform="translate(257,161)"/>
<path d="M0 0 C5.94 0 11.88 0 18 0 C18 5.94 18 11.88 18 18 C12.06 18 6.12 18 0 18 C0 12.06 0 6.12 0 0 Z " fill="#F6F6F6" transform="translate(471,125)"/>
<path d="M0 0 C5.94 0 11.88 0 18 0 C18 5.94 18 11.88 18 18 C12.06 18 6.12 18 0 18 C0 12.06 0 6.12 0 0 Z " fill="#F6F6F6" transform="translate(328,125)"/>
<path d="M0 0 C5.94 0 11.88 0 18 0 C18 5.94 18 11.88 18 18 C12.06 18 6.12 18 0 18 C0 12.06 0 6.12 0 0 Z " fill="#F6F6F6" transform="translate(221,125)"/>
<path d="M0 0 C5.94 0 11.88 0 18 0 C18 5.94 18 11.88 18 18 C12.06 18 6.12 18 0 18 C0 12.06 0 6.12 0 0 Z " fill="#F8F8F8" transform="translate(453,89)"/>
<path d="M0 0 C5.94 0 11.88 0 18 0 C18 5.94 18 11.88 18 18 C12.06 18 6.12 18 0 18 C0 12.06 0 6.12 0 0 Z " fill="#080808" transform="translate(364,89)"/>
<path d="M0 0 C5.94 0 11.88 0 18 0 C18 5.94 18 11.88 18 18 C12.06 18 6.12 18 0 18 C0 12.06 0 6.12 0 0 Z " fill="#F8F8F8" transform="translate(239,89)"/>
<path d="M0 0 C5.94 0 11.88 0 18 0 C18 5.94 18 11.88 18 18 C12.06 18 6.12 18 0 18 C0 12.06 0 6.12 0 0 Z " fill="#060606" transform="translate(453,36)"/>
<path d="M0 0 C5.94 0 11.88 0 18 0 C18 5.94 18 11.88 18 18 C12.06 18 6.12 18 0 18 C0 12.06 0 6.12 0 0 Z " fill="#F6F6F6" transform="translate(257,36)"/>
<path d="M0 0 C5.94 0 11.88 0 18 0 C18 5.94 18 11.88 18 18 C12.06 18 6.12 18 0 18 C0 12.06 0 6.12 0 0 Z " fill="#080808" transform="translate(435,18)"/>
<path d="M0 0 C5.61 0 11.22 0 17 0 C17 5.94 17 11.88 17 18 C11.39 18 5.78 18 0 18 C0 12.06 0 6.12 0 0 Z " fill="#040404" transform="translate(507,660)"/>
<path d="M0 0 C5.61 0 11.22 0 17 0 C17 5.94 17 11.88 17 18 C11.39 18 5.78 18 0 18 C0 12.06 0 6.12 0 0 Z " fill="#FAFAFA" transform="translate(293,535)"/>
<path d="M0 0 C5.94 0 11.88 0 18 0 C18 5.61 18 11.22 18 17 C12.06 17 6.12 17 0 17 C0 11.39 0 5.78 0 0 Z " fill="#040404" transform="translate(328,518)"/>
<path d="M0 0 C5.94 0 11.88 0 18 0 C18 5.61 18 11.22 18 17 C12.06 17 6.12 17 0 17 C0 11.39 0 5.78 0 0 Z " fill="#030303" transform="translate(132,518)"/>
<path d="M0 0 C5.94 0 11.88 0 18 0 C18 5.61 18 11.22 18 17 C12.06 17 6.12 17 0 17 C0 11.39 0 5.78 0 0 Z " fill="#030303" transform="translate(132,482)"/>
<path d="M0 0 C5.61 0 11.22 0 17 0 C17 5.94 17 11.88 17 18 C11.39 18 5.78 18 0 18 C0 12.06 0 6.12 0 0 Z " fill="#040404" transform="translate(400,357)"/>
<path d="M0 0 C5.61 0 11.22 0 17 0 C17 5.94 17 11.88 17 18 C11.39 18 5.78 18 0 18 C0 12.06 0 6.12 0 0 Z " fill="#010101" transform="translate(382,339)"/>
<path d="M0 0 C5.61 0 11.22 0 17 0 C17 5.94 17 11.88 17 18 C11.39 18 5.78 18 0 18 C0 12.06 0 6.12 0 0 Z " fill="#FAFAFA" transform="translate(507,321)"/>
<path d="M0 0 C5.94 0 11.88 0 18 0 C18 5.61 18 11.22 18 17 C12.06 17 6.12 17 0 17 C0 11.39 0 5.78 0 0 Z " fill="#020202" transform="translate(346,304)"/>
<path d="M0 0 C5.94 0 11.88 0 18 0 C18 5.61 18 11.22 18 17 C12.06 17 6.12 17 0 17 C0 11.39 0 5.78 0 0 Z " fill="#FAFAFA" transform="translate(257,304)"/>
<path d="M0 0 C5.94 0 11.88 0 18 0 C18 5.61 18 11.22 18 17 C12.06 17 6.12 17 0 17 C0 11.39 0 5.78 0 0 Z " fill="#FBFBFB" transform="translate(239,286)"/>
<path d="M0 0 C5.94 0 11.88 0 18 0 C18 5.61 18 11.22 18 17 C12.06 17 6.12 17 0 17 C0 11.39 0 5.78 0 0 Z " fill="#F9F9F9" transform="translate(364,268)"/>
<path d="M0 0 C5.94 0 11.88 0 18 0 C18 5.61 18 11.22 18 17 C12.06 17 6.12 17 0 17 C0 11.39 0 5.78 0 0 Z " fill="#030303" transform="translate(346,268)"/>
<path d="M0 0 C5.94 0 11.88 0 18 0 C18 5.61 18 11.22 18 17 C12.06 17 6.12 17 0 17 C0 11.39 0 5.78 0 0 Z " fill="#020202" transform="translate(453,161)"/>
<path d="M0 0 C5.61 0 11.22 0 17 0 C17 5.94 17 11.88 17 18 C11.39 18 5.78 18 0 18 C0 12.06 0 6.12 0 0 Z " fill="#F9F9F9" transform="translate(293,125)"/>
<path d="M0 0 C5.61 0 11.22 0 17 0 C17 5.94 17 11.88 17 18 C11.39 18 5.78 18 0 18 C0 12.06 0 6.12 0 0 Z " fill="#FAFAFA" transform="translate(293,89)"/>
<path d="M0 0 C5.94 0 11.88 0 18 0 C18 5.61 18 11.22 18 17 C12.06 17 6.12 17 0 17 C0 11.39 0 5.78 0 0 Z " fill="#020202" transform="translate(239,72)"/>
<path d="M0 0 C5.61 0 11.22 0 17 0 C17 5.94 17 11.88 17 18 C11.39 18 5.78 18 0 18 C0 12.06 0 6.12 0 0 Z " fill="#040404" transform="translate(525,18)"/>
<path d="M0 0 C5.61 0 11.22 0 17 0 C17 5.61 17 11.22 17 17 C11.39 17 5.78 17 0 17 C0 11.39 0 5.78 0 0 Z " fill="#000000" transform="translate(489,625)"/>
<path d="M0 0 C5.61 0 11.22 0 17 0 C17 5.61 17 11.22 17 17 C11.39 17 5.78 17 0 17 C0 11.39 0 5.78 0 0 Z " fill="#000000" transform="translate(382,625)"/>
<path d="M0 0 C5.61 0 11.22 0 17 0 C17 5.61 17 11.22 17 17 C11.39 17 5.78 17 0 17 C0 11.39 0 5.78 0 0 Z " fill="#000000" transform="translate(650,607)"/>
<path d="M0 0 C5.61 0 11.22 0 17 0 C17 5.61 17 11.22 17 17 C11.39 17 5.78 17 0 17 C0 11.39 0 5.78 0 0 Z " fill="#010101" transform="translate(79,518)"/>
<path d="M0 0 C5.61 0 11.22 0 17 0 C17 5.61 17 11.22 17 17 C11.39 17 5.78 17 0 17 C0 11.39 0 5.78 0 0 Z " fill="#000000" transform="translate(97,500)"/>
<path d="M0 0 C5.61 0 11.22 0 17 0 C17 5.61 17 11.22 17 17 C11.39 17 5.78 17 0 17 C0 11.39 0 5.78 0 0 Z " fill="#FEFEFE" transform="translate(489,464)"/>
<path d="M0 0 C5.61 0 11.22 0 17 0 C17 5.61 17 11.22 17 17 C11.39 17 5.78 17 0 17 C0 11.39 0 5.78 0 0 Z " fill="#FEFEFE" transform="translate(97,411)"/>
<path d="M0 0 C5.61 0 11.22 0 17 0 C17 5.61 17 11.22 17 17 C11.39 17 5.78 17 0 17 C0 11.39 0 5.78 0 0 Z " fill="#FDFDFD" transform="translate(614,375)"/>
<path d="M0 0 C5.61 0 11.22 0 17 0 C17 5.61 17 11.22 17 17 C11.39 17 5.78 17 0 17 C0 11.39 0 5.78 0 0 Z " fill="#010101" transform="translate(596,375)"/>
<path d="M0 0 C5.61 0 11.22 0 17 0 C17 5.61 17 11.22 17 17 C11.39 17 5.78 17 0 17 C0 11.39 0 5.78 0 0 Z " fill="#FDFDFD" transform="translate(632,357)"/>
<path d="M0 0 C5.61 0 11.22 0 17 0 C17 5.61 17 11.22 17 17 C11.39 17 5.78 17 0 17 C0 11.39 0 5.78 0 0 Z " fill="#FDFDFD" transform="translate(596,357)"/>
<path d="M0 0 C5.61 0 11.22 0 17 0 C17 5.61 17 11.22 17 17 C11.39 17 5.78 17 0 17 C0 11.39 0 5.78 0 0 Z " fill="#FDFDFD" transform="translate(596,322)"/>
<path d="M0 0 C5.61 0 11.22 0 17 0 C17 5.61 17 11.22 17 17 C11.39 17 5.78 17 0 17 C0 11.39 0 5.78 0 0 Z " fill="#FEFEFE" transform="translate(614,304)"/>
<path d="M0 0 C5.61 0 11.22 0 17 0 C17 5.61 17 11.22 17 17 C11.39 17 5.78 17 0 17 C0 11.39 0 5.78 0 0 Z " fill="#FEFEFE" transform="translate(543,304)"/>
<path d="M0 0 C5.61 0 11.22 0 17 0 C17 5.61 17 11.22 17 17 C11.39 17 5.78 17 0 17 C0 11.39 0 5.78 0 0 Z " fill="#000000" transform="translate(275,304)"/>
<path d="M0 0 C5.61 0 11.22 0 17 0 C17 5.61 17 11.22 17 17 C11.39 17 5.78 17 0 17 C0 11.39 0 5.78 0 0 Z " fill="#010101" transform="translate(614,286)"/>
<path d="M0 0 C5.61 0 11.22 0 17 0 C17 5.61 17 11.22 17 17 C11.39 17 5.78 17 0 17 C0 11.39 0 5.78 0 0 Z " fill="#FEFEFE" transform="translate(489,286)"/>
<path d="M0 0 C5.61 0 11.22 0 17 0 C17 5.61 17 11.22 17 17 C11.39 17 5.78 17 0 17 C0 11.39 0 5.78 0 0 Z " fill="#FDFDFD" transform="translate(275,286)"/>
<path d="M0 0 C5.61 0 11.22 0 17 0 C17 5.61 17 11.22 17 17 C11.39 17 5.78 17 0 17 C0 11.39 0 5.78 0 0 Z " fill="#000000" transform="translate(257,286)"/>
<path d="M0 0 C5.61 0 11.22 0 17 0 C17 5.61 17 11.22 17 17 C11.39 17 5.78 17 0 17 C0 11.39 0 5.78 0 0 Z " fill="#FDFDFD" transform="translate(257,268)"/>
<path d="M0 0 C5.61 0 11.22 0 17 0 C17 5.61 17 11.22 17 17 C11.39 17 5.78 17 0 17 C0 11.39 0 5.78 0 0 Z " fill="#010101" transform="translate(311,250)"/>
<path d="M0 0 C5.61 0 11.22 0 17 0 C17 5.61 17 11.22 17 17 C11.39 17 5.78 17 0 17 C0 11.39 0 5.78 0 0 Z " fill="#FDFDFD" transform="translate(507,197)"/>
<path d="M0 0 C5.61 0 11.22 0 17 0 C17 5.61 17 11.22 17 17 C11.39 17 5.78 17 0 17 C0 11.39 0 5.78 0 0 Z " fill="#FDFDFD" transform="translate(382,197)"/>
<path d="M0 0 C5.61 0 11.22 0 17 0 C17 5.61 17 11.22 17 17 C11.39 17 5.78 17 0 17 C0 11.39 0 5.78 0 0 Z " fill="#010101" transform="translate(436,179)"/>
<path d="M0 0 C5.61 0 11.22 0 17 0 C17 5.61 17 11.22 17 17 C11.39 17 5.78 17 0 17 C0 11.39 0 5.78 0 0 Z " fill="#000000" transform="translate(186,161)"/>
<path d="M0 0 C5.61 0 11.22 0 17 0 C17 5.61 17 11.22 17 17 C11.39 17 5.78 17 0 17 C0 11.39 0 5.78 0 0 Z " fill="#010101" transform="translate(275,125)"/>
<path d="M0 0 C5.61 0 11.22 0 17 0 C17 5.61 17 11.22 17 17 C11.39 17 5.78 17 0 17 C0 11.39 0 5.78 0 0 Z " fill="#FEFEFE" transform="translate(311,72)"/>
<path d="M0 0 C5.61 0 11.22 0 17 0 C17 5.61 17 11.22 17 17 C11.39 17 5.78 17 0 17 C0 11.39 0 5.78 0 0 Z " fill="#FDFDFD" transform="translate(507,54)"/>
<path d="M0 0 C5.61 0 11.22 0 17 0 C17 5.61 17 11.22 17 17 C11.39 17 5.78 17 0 17 C0 11.39 0 5.78 0 0 Z " fill="#010101" transform="translate(507,36)"/>
<path d="M0 0 C5.61 0 11.22 0 17 0 C17 5.61 17 11.22 17 17 C11.39 17 5.78 17 0 17 C0 11.39 0 5.78 0 0 Z " fill="#010101" transform="translate(382,36)"/>
<path d="M0 0 C0.33 0 0.66 0 1 0 C1 17.49 1 34.98 1 53 C6.61 53 12.22 53 18 53 C18 53.33 18 53.66 18 54 C12.39 54 6.78 54 1 54 C1 77.1 1 100.2 1 124 C12.55 124 24.1 124 36 124 C36 124.33 36 124.66 36 125 C24.45 125 12.9 125 1 125 C1 130.61 1 136.22 1 142 C0.67 142.33 0.34 142.66 0 143 C-5.94 143 -11.88 143 -18 143 C-18 125.18 -18 107.36 -18 89 C-17.67 89 -17.34 89 -17 89 C-17 100.55 -17 112.1 -17 124 C-11.39 124 -5.78 124 0 124 C0 83.08 0 42.16 0 0 Z M-17 125 C-17 130.61 -17 136.22 -17 142 C-11.39 142 -5.78 142 0 142 C0 136.39 0 130.78 0 125 C-5.61 125 -11.22 125 -17 125 Z " fill="#797979" transform="translate(203,36)"/>
<path d="M0 0 C17.82 0 35.64 0 54 0 C54 0.33 54 0.66 54 1 C36.51 1 19.02 1 1 1 C1 6.61 1 12.22 1 18 C6.61 18 12.22 18 18 18 C18 18.33 18 18.66 18 19 C12.39 19 6.78 19 1 19 C1 42.1 1 65.2 1 89 C6.61 89 12.22 89 18 89 C18 89.33 18 89.66 18 90 C12.39 90 6.78 90 1 90 C1 95.61 1 101.22 1 107 C6.61 107 12.22 107 18 107 C18 107.33 18 107.66 18 108 C12.39 108 6.78 108 1 108 C1 113.61 1 119.22 1 125 C0.67 125 0.34 125 0 125 C0 119.39 0 113.78 0 108 C-5.61 108 -11.22 108 -17 108 C-17 107.67 -17 107.34 -17 107 C-11.39 107 -5.78 107 0 107 C0 101.39 0 95.78 0 90 C-5.61 90 -11.22 90 -17 90 C-17 89.67 -17 89.34 -17 89 C-11.39 89 -5.78 89 0 89 C0 59.63 0 30.26 0 0 Z " fill="#7C7C7C" transform="translate(96,410)"/>
<path d="M0 0 C29.7 0 59.4 0 90 0 C90 5.94 90 11.88 90 18 C95.61 18 101.22 18 107 18 C107 18.33 107 18.66 107 19 C101.39 19 95.78 19 90 19 C90 36.49 90 53.98 90 72 C89.67 72 89.34 72 89 72 C89 54.51 89 37.02 89 19 C65.57 19 42.14 19 18 19 C18 18.67 18 18.34 18 18 C41.43 18 64.86 18 89 18 C89 12.39 89 6.78 89 1 C59.63 1 30.26 1 0 1 C0 0.67 0 0.34 0 0 Z " fill="#7D7D7D" transform="translate(114,285)"/>
<path d="M0 0 C0.33 0 0.66 0 1 0 C1 11.55 1 23.1 1 35 C6.61 35 12.22 35 18 35 C18 23.45 18 11.9 18 0 C18.33 0 18.66 0 19 0 C19 5.61 19 11.22 19 17 C24.61 17 30.22 17 36 17 C36 11.39 36 5.78 36 0 C36.33 0 36.66 0 37 0 C37 5.94 37 11.88 37 18 C31.06 18 25.12 18 19 18 C19 23.94 19 29.88 19 36 C13.06 36 7.12 36 1 36 C1 53.49 1 70.98 1 89 C0.67 89 0.34 89 0 89 C0 71.51 0 54.02 0 36 C-17.49 36 -34.98 36 -53 36 C-53 35.67 -53 35.34 -53 35 C-35.51 35 -18.02 35 0 35 C0 29.39 0 23.78 0 18 C-5.61 18 -11.22 18 -17 18 C-17 17.67 -17 17.34 -17 17 C-11.39 17 -5.78 17 0 17 C0 11.39 0 5.78 0 0 Z " fill="#8C8C8C" transform="translate(613,357)"/>
<path d="M0 0 C0.33 0 0.66 0 1 0 C1 5.61 1 11.22 1 17 C6.94 17 12.88 17 19 17 C19 22.94 19 28.88 19 35 C24.61 35 30.22 35 36 35 C36 35.33 36 35.66 36 36 C30.39 36 24.78 36 19 36 C19 47.55 19 59.1 19 71 C18.67 71 18.34 71 18 71 C18 65.39 18 59.78 18 54 C12.39 54 6.78 54 1 54 C1 53.67 1 53.34 1 53 C6.61 53 12.22 53 18 53 C18 47.39 18 41.78 18 36 C0.51 36 -16.98 36 -35 36 C-35 35.67 -35 35.34 -35 35 C-23.45 35 -11.9 35 0 35 C0 29.39 0 23.78 0 18 C-17.49 18 -34.98 18 -53 18 C-53 17.67 -53 17.34 -53 17 C-35.51 17 -18.02 17 0 17 C0 11.39 0 5.78 0 0 Z M1 18 C1 23.61 1 29.22 1 35 C6.61 35 12.22 35 18 35 C18 29.39 18 23.78 18 18 C12.39 18 6.78 18 1 18 Z " fill="#848484" transform="translate(274,268)"/>
<path d="M0 0 C0.33 0 0.66 0 1 0 C1 5.61 1 11.22 1 17 C6.61 17 12.22 17 18 17 C18 11.39 18 5.78 18 0 C18.33 0 18.66 0 19 0 C19 5.61 19 11.22 19 17 C30.55 17 42.1 17 54 17 C54 17.33 54 17.66 54 18 C42.45 18 30.9 18 19 18 C19 29.55 19 41.1 19 53 C18.67 53 18.34 53 18 53 C18 41.45 18 29.9 18 18 C12.39 18 6.78 18 1 18 C1 29.55 1 41.1 1 53 C0.67 53 0.34 53 0 53 C0 47.39 0 41.78 0 36 C-5.61 36 -11.22 36 -17 36 C-17 35.67 -17 35.34 -17 35 C-11.39 35 -5.78 35 0 35 C0 29.39 0 23.78 0 18 C-11.55 18 -23.1 18 -35 18 C-35 17.67 -35 17.34 -35 17 C-23.45 17 -11.9 17 0 17 C0 11.39 0 5.78 0 0 Z " fill="#8E8E8E" transform="translate(613,286)"/>
<path d="M0 0 C0.33 0 0.66 0 1 0 C1 17.49 1 34.98 1 53 C6.61 53 12.22 53 18 53 C18 47.06 18 41.12 18 35 C23.94 35 29.88 35 36 35 C36 35.33 36 35.66 36 36 C30.39 36 24.78 36 19 36 C19 41.61 19 47.22 19 53 C24.61 53 30.22 53 36 53 C36 53.33 36 53.66 36 54 C30.39 54 24.78 54 19 54 C19 59.61 19 65.22 19 71 C18.67 71 18.34 71 18 71 C18 65.39 18 59.78 18 54 C12.06 54 6.12 54 0 54 C0 42.12 0 30.24 0 18 C-11.55 18 -23.1 18 -35 18 C-35 17.67 -35 17.34 -35 17 C-23.45 17 -11.9 17 0 17 C0 11.39 0 5.78 0 0 Z " fill="#8D8D8D" transform="translate(524,250)"/>
<path d="M0 0 C0.33 0 0.66 0 1 0 C1 11.55 1 23.1 1 35 C6.94 35 12.88 35 19 35 C19 40.94 19 46.88 19 53 C18.67 53 18.34 53 18 53 C18 47.39 18 41.78 18 36 C12.39 36 6.78 36 1 36 C1 53.49 1 70.98 1 89 C0.67 89 0.34 89 0 89 C0 71.51 0 54.02 0 36 C-11.55 36 -23.1 36 -35 36 C-35 35.67 -35 35.34 -35 35 C-23.45 35 -11.9 35 0 35 C0 23.45 0 11.9 0 0 Z " fill="#838383" transform="translate(417,482)"/>
<path d="M0 0 C5.94 0 11.88 0 18 0 C18 0.33 18 0.66 18 1 C12.39 1 6.78 1 1 1 C1 12.55 1 24.1 1 36 C6.61 36 12.22 36 18 36 C18 36.33 18 36.66 18 37 C12.39 37 6.78 37 1 37 C1 42.61 1 48.22 1 54 C6.61 54 12.22 54 18 54 C18 54.33 18 54.66 18 55 C12.39 55 6.78 55 1 55 C1 60.61 1 66.22 1 72 C0.67 72 0.34 72 0 72 C0 66.39 0 60.78 0 55 C-5.94 55 -11.88 55 -18 55 C-18 48.73 -18 42.46 -18 36 C-17.67 36 -17.34 36 -17 36 C-17 41.94 -17 47.88 -17 54 C-11.39 54 -5.78 54 0 54 C0 36.18 0 18.36 0 0 Z " fill="#7A7A7A" transform="translate(310,499)"/>
<path d="M0 0 C0.33 0 0.66 0 1 0 C1 11.55 1 23.1 1 35 C6.61 35 12.22 35 18 35 C18 29.06 18 23.12 18 17 C23.94 17 29.88 17 36 17 C36 17.33 36 17.66 36 18 C30.39 18 24.78 18 19 18 C19 23.94 19 29.88 19 36 C13.06 36 7.12 36 1 36 C1 41.61 1 47.22 1 53 C0.67 53 0.34 53 0 53 C0 47.39 0 41.78 0 36 C-5.61 36 -11.22 36 -17 36 C-17 35.67 -17 35.34 -17 35 C-11.39 35 -5.78 35 0 35 C0 23.45 0 11.9 0 0 Z " fill="#7A7A7A" transform="translate(292,375)"/>
<path d="M0 0 C0.33 0 0.66 0 1 0 C1 5.61 1 11.22 1 17 C6.61 17 12.22 17 18 17 C18 17.33 18 17.66 18 18 C12.39 18 6.78 18 1 18 C1 29.55 1 41.1 1 53 C0.67 53 0.34 53 0 53 C0 47.39 0 41.78 0 36 C-5.61 36 -11.22 36 -17 36 C-17 35.67 -17 35.34 -17 35 C-11.39 35 -5.78 35 0 35 C0 29.39 0 23.78 0 18 C-5.61 18 -11.22 18 -17 18 C-17 17.67 -17 17.34 -17 17 C-11.39 17 -5.78 17 0 17 C0 11.39 0 5.78 0 0 Z " fill="#8C8C8C" transform="translate(399,607)"/>
<path d="M0 0 C0.33 0 0.66 0 1 0 C1 5.61 1 11.22 1 17 C12.55 17 24.1 17 36 17 C36 17.33 36 17.66 36 18 C24.45 18 12.9 18 1 18 C1 29.55 1 41.1 1 53 C0.67 53 0.34 53 0 53 C0 41.45 0 29.9 0 18 C-1.32 17.67 -2.64 17.34 -4 17 C-2.68 17 -1.36 17 0 17 C0 11.39 0 5.78 0 0 Z " fill="#7F7F7F" transform="translate(631,286)"/>
<path d="M0 0 C0.33 0 0.66 0 1 0 C1 5.61 1 11.22 1 17 C6.61 17 12.22 17 18 17 C18 17.33 18 17.66 18 18 C12.39 18 6.78 18 1 18 C1 23.94 1 29.88 1 36 C-4.94 36 -10.88 36 -17 36 C-17 35.67 -17 35.34 -17 35 C-11.39 35 -5.78 35 0 35 C0 29.39 0 23.78 0 18 C-5.61 18 -11.22 18 -17 18 C-17 17.67 -17 17.34 -17 17 C-11.39 17 -5.78 17 0 17 C0 11.39 0 5.78 0 0 Z " fill="#8C8C8C" transform="translate(506,607)"/>
<path d="M0 0 C0.33 0 0.66 0 1 0 C1 5.61 1 11.22 1 17 C6.61 17 12.22 17 18 17 C18 17.33 18 17.66 18 18 C12.39 18 6.78 18 1 18 C1 23.61 1 29.22 1 35 C0.67 35 0.34 35 0 35 C0 29.39 0 23.78 0 18 C-5.61 18 -11.22 18 -17 18 C-17 17.67 -17 17.34 -17 17 C-11.39 17 -5.78 17 0 17 C0 11.39 0 5.78 0 0 Z " fill="#7E7E7E" transform="translate(96,500)"/>
<path d="M0 0 C0.33 0 0.66 0 1 0 C1 10.56 1 21.12 1 32 C0.01 31.34 -0.98 30.68 -2 30 C-2 29.34 -2 28.68 -2 28 C-1.34 28 -0.68 28 0 28 C-0.03552979 27.18732666 -0.07105957 26.37465332 -0.10766602 25.53735352 C-0.26461673 21.87927511 -0.41366434 18.22091718 -0.5625 14.5625 C-0.61857422 13.28310547 -0.67464844 12.00371094 -0.73242188 10.68554688 C-0.78076172 9.47060547 -0.82910156 8.25566406 -0.87890625 7.00390625 C-0.9260376 5.87799072 -0.97316895 4.7520752 -1.02172852 3.59204102 C-1 1 -1 1 0 0 Z " fill="#0D0D0D" transform="translate(470,342)"/>
<path d="M0 0 C0.33 0 0.66 0 1 0 C1 5.61 1 11.22 1 17 C0.01 16.34 -0.98 15.68 -2 15 C-2 14.34 -2 13.68 -2 13 C-1.34 13 -0.68 13 0 13 C0 8.71 0 4.42 0 0 Z " fill="#0D0D0D" transform="translate(470,125)"/>
</svg>
